<svg xmlns="http://www.w3.org/2000/svg" xmlns:xlink="http://www.w3.org/1999/xlink" width="375" height="815" viewBox="0 0 375 815">
  <defs>
    <filter id="Rectangle_2" x="-56" y="670" width="495" height="200" filterUnits="userSpaceOnUse">
      <feOffset dx="4" dy="-5" input="SourceAlpha"/>
      <feGaussianBlur stdDeviation="20" result="blur"/>
      <feFlood flood-color="#445780" flood-opacity="0.102"/>
      <feComposite operator="in" in2="blur"/>
      <feComposite in="SourceGraphic"/>
    </filter>
    <clipPath id="clip-Home">
      <rect width="375" height="815"/>
    </clipPath>
  </defs>
  <g id="Home" clip-path="url(#clip-Home)">
    <rect width="375" height="815" fill="#fff"/>
    <g id="NEWS_2" data-name="NEWS 2" transform="translate(0 -35)">
      <rect id="Rectangle_8" data-name="Rectangle 8" width="30" height="30" rx="8" transform="translate(50 912)" fill="#5c5c5c"/>
      <text id="_4_Hours_ago" data-name="4 Hours ago" transform="translate(50 886)" fill="#373737" font-size="12" font-family="Nunito-Bold, Nunito" font-weight="700"><tspan x="0" y="12">4 Hours ago</tspan></text>
      <rect id="Rectangle_1" data-name="Rectangle 1" width="315" height="377" rx="11" transform="translate(30 578)" fill="#f4f5f9"/>
      <text id="One_year_after_pandemic_many_companies_went_bankrupt" data-name="One year after pandemic, many companies went bankrupt" transform="translate(50 832)" fill="#373737" font-size="18" font-family="Nunito-ExtraBold, Nunito" font-weight="800"><tspan x="0" y="18">One year after pandemic, many </tspan><tspan x="0" y="42">companies went bankrupt</tspan></text>
      <text id="Bussiness" transform="translate(50 598)" fill="#373737" font-size="14" font-family="Nunito-Bold, Nunito" font-weight="700"><tspan x="0" y="14">Bussiness</tspan></text>
      <text id="_4_Hours_ago-2" data-name="4 Hours ago" transform="translate(50 886)" fill="#bdbdbd" font-size="12" font-family="Nunito-Bold, Nunito" font-weight="700"><tspan x="0" y="12">4 Hours ago</tspan></text>
      <g id="ICON_-_MORE" data-name="ICON - MORE">
        <circle id="Ellipse_1" data-name="Ellipse 1" cx="2" cy="2" r="2" transform="translate(308 600)" fill="#666"/>
        <circle id="Ellipse_2" data-name="Ellipse 2" cx="2" cy="2" r="2" transform="translate(308 606)" fill="#666"/>
        <circle id="Ellipse_3" data-name="Ellipse 3" cx="2" cy="2" r="2" transform="translate(308 612)" fill="#666"/>
      </g>
      <g id="Groupe_7" data-name="Groupe 7">
        <rect id="Rectangle_12" data-name="Rectangle 12" width="275" height="187" rx="11" transform="translate(50 637)" fill="#ffda7e"/>
        <g id="ILLUSTRATION">
          <g id="Group">
            <path id="Vector" d="M117.58-67.75l-.24-85.77L0-85.78.24,0Z" transform="translate(241.04 658.35) rotate(180)" fill="#55dfff" opacity="0.7"/>
          </g>
          <g id="Group-2" data-name="Group">
            <g id="Group-3" data-name="Group">
              <path id="Vector-2" data-name="Vector" d="M11.2-6.46l-.02-8.86L0-8.86.02,0Z" transform="translate(235.72 719.04) rotate(180)" fill="#f2c557"/>
            </g>
            <g id="Group-4" data-name="Group">
              <path id="Vector-3" data-name="Vector" d="M22.51-12.99V-14.8L0-1.8.01,0Z" transform="translate(235.56 667.51) rotate(180)" fill="#fff"/>
            </g>
            <g id="Group-5" data-name="Group">
              <path id="Vector-4" data-name="Vector" d="M7.77-1.063v-.68C3.82.537.6-1.3.59-5.833a15.751,15.751,0,0,1,7.14-12.36v-.68C3.46-16.4-.01-10.4,0-5.493S3.49,1.407,7.77-1.063Z" transform="translate(216.69 707.117) rotate(180)" fill="#fff"/>
            </g>
            <g id="Group-6" data-name="Group">
              <g id="Group-7" data-name="Group">
                <path id="Vector-5" data-name="Vector" d="M7.77-1.061v-.68C3.83.539.6-1.3.59-5.831a15.733,15.733,0,0,1,7.13-12.35c3.95-2.28,7.16-.45,7.18,4.09l.59-.34c-.01-4.91-3.5-6.9-7.77-4.43S-.02-10.4,0-5.491,3.5,1.409,7.77-1.061Z" transform="translate(235.94 696.009) rotate(180)" fill="#fff"/>
              </g>
              <g id="Group-8" data-name="Group">
                <path id="Vector-6" data-name="Vector" d="M.01,0C4.44-2.56,8.05-8.8,8.03-13.89l-.3.17-.59.34-.3.17A15.09,15.09,0,0,1,0-1.37V-.35Z" transform="translate(228.18 696.73) rotate(180)" fill="#f2c557"/>
              </g>
              <g id="Group-9" data-name="Group">
                <path id="Vector-7" data-name="Vector" d="M14.63-8.45l-.01-1.8L0-1.8V0Z" transform="translate(235.61 686.26) rotate(180)" fill="#fff"/>
              </g>
              <g id="Group-10" data-name="Group">
                <path id="Vector-8" data-name="Vector" d="M9.99-5.76V-7.57L0-1.81V0Z" transform="translate(235.59 678.76) rotate(180)" fill="#fff"/>
              </g>
              <g id="Group-11" data-name="Group">
                <path id="Vector-9" data-name="Vector" d="M15.9-9.17l-.01-1.81L0-1.8.01,0Z" transform="translate(235.58 675.01) rotate(180)" fill="#fff"/>
              </g>
              <g id="Group-12" data-name="Group">
                <path id="Vector-10" data-name="Vector" d="M22.51-12.99,22.5-14.8,0-1.81.01,0Z" transform="translate(235.6 682.51) rotate(180)" fill="#fff"/>
              </g>
              <g id="Group-13" data-name="Group">
                <path id="Vector-11" data-name="Vector" d="M15.29-8.83l-.01-1.8L0-1.81.01,0Z" transform="translate(218.46 696.16) rotate(180)" fill="#fff"/>
              </g>
              <g id="Group-14" data-name="Group">
                <path id="Vector-12" data-name="Vector" d="M7.41-4.27V-6.08L0-1.81.01,0Z" transform="translate(210.57 696.96) rotate(180)" fill="#fff"/>
              </g>
              <g id="Group-15" data-name="Group">
                <path id="Vector-13" data-name="Vector" d="M19.92-11.5v-1.81L0-1.81V0Z" transform="translate(223.07 685.98) rotate(180)" fill="#fff"/>
              </g>
              <g id="Group-16" data-name="Group">
                <path id="Vector-14" data-name="Vector" d="M14.02-8.1V-9.9L0-1.81.01,0Z" transform="translate(217.16 685.64) rotate(180)" fill="#fff"/>
              </g>
              <g id="Group-17" data-name="Group">
                <path id="Vector-15" data-name="Vector" d="M24.49-14.14v-1.81L0-1.81V0Z" transform="translate(227.62 675.84) rotate(180)" fill="#fff"/>
              </g>
            </g>
            <g id="Group-18" data-name="Group">
              <path id="Vector-16" data-name="Vector" d="M11.2-6.45l-.03-8.86L0-8.86.02,0Z" transform="translate(206.89 735.69) rotate(180)" fill="#f2c557"/>
            </g>
            <g id="Group-19" data-name="Group">
              <path id="Vector-17" data-name="Vector" d="M8.07,0c4.44-2.56,8.04-8.79,8.02-13.89s-3.63-7.16-8.07-4.6S-.02-9.7,0-4.6l.3-.17.59-.34.3-.17A15.079,15.079,0,0,1,8.02-17.12c3.78-2.18,6.87-.42,6.88,3.92A15.063,15.063,0,0,1,8.06-1.36V0Z" transform="translate(197.75 718.95) rotate(180)" fill="#f2c557"/>
            </g>
            <g id="Group-20" data-name="Group">
              <path id="Vector-18" data-name="Vector" d="M7.4-4.27V-6.08L0-1.81V0Z" transform="translate(174.16 717.98) rotate(180)" fill="#fff"/>
            </g>
            <g id="Group-21" data-name="Group">
              <path id="Vector-19" data-name="Vector" d="M15.28-8.82v-1.8L0-1.81V0Z" transform="translate(182.05 717.18) rotate(180)" fill="#fff"/>
            </g>
            <g id="Group-22" data-name="Group">
              <g id="Group-23" data-name="Group">
                <path id="Vector-20" data-name="Vector" d="M7.77-1.061v-.68C3.83.539.6-1.3.59-5.831L0-5.491C.01-.581,3.49,1.409,7.77-1.061Z" transform="translate(197.45 718.229) rotate(180)" fill="#fff"/>
              </g>
              <g id="Group-24" data-name="Group">
                <path id="Vector-21" data-name="Vector" d="M14.63-8.44l-.01-1.81L0-1.8V0Z" transform="translate(199.2 707.28) rotate(180)" fill="#fff"/>
              </g>
              <g id="Group-25" data-name="Group">
                <path id="Vector-22" data-name="Vector" d="M9.99-5.77V-7.58L0-1.81V0Z" transform="translate(199.18 699.77) rotate(180)" fill="#fff"/>
              </g>
              <g id="Group-26" data-name="Group">
                <path id="Vector-23" data-name="Vector" d="M5.42-3.12,5.41-4.93,0-1.8V0Z" transform="translate(199.16 692.28) rotate(180)" fill="#fff"/>
              </g>
              <g id="Group-27" data-name="Group">
                <path id="Vector-24" data-name="Vector" d="M15.89-9.17v-1.81L0-1.8V0Z" transform="translate(199.17 696.03) rotate(180)" fill="#fff"/>
              </g>
              <g id="Group-28" data-name="Group">
                <path id="Vector-25" data-name="Vector" d="M22.51-12.99V-14.8L0-1.8.01,0Z" transform="translate(199.2 703.53) rotate(180)" fill="#fff"/>
              </g>
              <g id="Group-29" data-name="Group">
                <path id="Vector-26" data-name="Vector" d="M22.5-13v-1.8L0-1.81V0Z" transform="translate(199.15 688.52) rotate(180)" fill="#fff"/>
              </g>
              <g id="Group-30" data-name="Group">
                <path id="Vector-27" data-name="Vector" d="M19.92-11.5v-1.81L0-1.81.01,0Z" transform="translate(186.67 707) rotate(180)" fill="#fff"/>
              </g>
              <g id="Group-31" data-name="Group">
                <path id="Vector-28" data-name="Vector" d="M14.01-8.09v-1.8L0-1.81V0Z" transform="translate(180.75 706.66) rotate(180)" fill="#fff"/>
              </g>
              <g id="Group-32" data-name="Group">
                <path id="Vector-29" data-name="Vector" d="M7.4-4.27V-6.08L0-1.8.01,0Z" transform="translate(174.12 702.98) rotate(180)" fill="#fff"/>
              </g>
            </g>
            <g id="Group-33" data-name="Group">
              <path id="Vector-30" data-name="Vector" d="M11.21-6.46l-.03-8.85L0-8.86.03,0Z" transform="translate(178.07 752.33) rotate(180)" fill="#f2c557"/>
            </g>
            <g id="Group-34" data-name="Group">
              <path id="Vector-31" data-name="Vector" d="M8.07-1.11C12.5-3.67,16.1-9.91,16.09-15s-3.64-7.16-8.07-4.6a16.721,16.721,0,0,0-6.06,6.68A15.88,15.88,0,0,0,0-5.71C.01-2.2,1.72-.01,4.46,0L4.6-.39l.26-.76.13-.38C2.65-1.54,1.2-3.39,1.19-6.39a13.525,13.525,0,0,1,1.67-6.15,14.282,14.282,0,0,1,5.17-5.7c3.78-2.18,6.86-.42,6.88,3.93A15.1,15.1,0,0,1,8.08-2.47v1.36Z" transform="translate(178.51 728.95) rotate(180)" fill="#f2c557"/>
            </g>
            <g id="Group-35" data-name="Group">
              <path id="Vector-32" data-name="Vector" d="M3.47-1.06v-.68A6.481,6.481,0,0,1,.26-.76L0,0A7.065,7.065,0,0,0,3.47-1.06Z" transform="translate(173.91 729.34) rotate(180)" fill="#fff"/>
            </g>
            <g id="Group-36" data-name="Group">
              <path id="Vector-33" data-name="Vector" d="M.06,0C4.49-2.56,8.09-8.79,8.07-13.89S4.44-21.05,0-18.5v1.36c3.78-2.18,6.87-.42,6.88,3.92A15.106,15.106,0,0,1,.05-1.38V0Z" transform="translate(208.98 707.84) rotate(180)" fill="#f2c557"/>
            </g>
            <g id="Group-37" data-name="Group">
              <path id="Vector-34" data-name="Vector" d="M2.64-1.52,2.63-6.67,0-5.15.01,0Z" transform="translate(153.35 752.71) rotate(180)" fill="#f2c557"/>
            </g>
            <g id="Group-38" data-name="Group">
              <path id="Vector-35" data-name="Vector" d="M13.03-.17c3.24-1.87,3.19-20.05,6.43-21.92S22.74-9.53,25.99-11.4s3.23-7.1,6.48-8.97l-.04-13.07L0-14.72.04-1.65c3.24-1.87,3.22-7.1,6.47-8.97S9.79,1.7,13.03-.17Z" transform="translate(162.95 768.39) rotate(180)" fill="#fff"/>
            </g>
            <g id="Group-39" data-name="Group">
              <path id="Vector-36" data-name="Vector" d="M2.65-1.52,2.63-9.68,0-8.17.03,0Z" transform="translate(148.23 752.65) rotate(180)" fill="#f2c557"/>
            </g>
            <g id="Group-40" data-name="Group">
              <path id="Vector-37" data-name="Vector" d="M2.65-1.51,2.62-12.7,0-11.19.03,0Z" transform="translate(143.1 752.59) rotate(180)" fill="#f2c557"/>
            </g>
            <g id="Group-41" data-name="Group">
              <path id="Vector-38" data-name="Vector" d="M2.67-1.52l-.04-14.2L0-14.2.04,0Z" transform="translate(137.98 752.53) rotate(180)" fill="#f2c557"/>
            </g>
            <g id="Group-42" data-name="Group">
              <path id="Vector-39" data-name="Vector" d="M2.68-1.52,2.63-18.74,0-17.22.05,0Z" transform="translate(132.86 752.47) rotate(180)" fill="#f2c557"/>
            </g>
            <g id="Group-43" data-name="Group">
              <path id="Vector-40" data-name="Vector" d="M7.41-4.27V-6.08L0-1.81.01,0Z" transform="translate(210.53 681.96) rotate(180)" fill="#fff"/>
            </g>
            <g id="Group-44" data-name="Group">
              <path id="Vector-41" data-name="Vector" d="M5.43-3.13l-.01-1.8L0-1.8.01,0Z" transform="translate(235.57 671.26) rotate(180)" fill="#fff"/>
            </g>
            <g id="Group-45" data-name="Group">
              <path id="Vector-42" data-name="Vector" d="M24.49-14.14v-1.8L0-1.81.01,0Z" transform="translate(191.22 696.86) rotate(180)" fill="#fff"/>
            </g>
            <g id="Group-46" data-name="Group">
              <g id="Group-47" data-name="Group">
                <path id="Vector-43" data-name="Vector" d="M14.63-8.44l-.01-1.8L0-1.8V0Z" transform="translate(162.8 728.3) rotate(180)" fill="#fff"/>
              </g>
              <g id="Group-48" data-name="Group">
                <path id="Vector-44" data-name="Vector" d="M9.99-5.77l-.01-1.8L0-1.81.01,0Z" transform="translate(162.78 720.79) rotate(180)" fill="#fff"/>
              </g>
              <g id="Group-49" data-name="Group">
                <path id="Vector-45" data-name="Vector" d="M5.42-3.12v-1.8L0-1.8.01,0Z" transform="translate(162.76 713.3) rotate(180)" fill="#fff"/>
              </g>
              <g id="Group-50" data-name="Group">
                <path id="Vector-46" data-name="Vector" d="M15.9-9.17l-.01-1.8L0-1.8.01,0Z" transform="translate(162.77 717.05) rotate(180)" fill="#fff"/>
              </g>
              <g id="Group-51" data-name="Group">
                <path id="Vector-47" data-name="Vector" d="M22.51-13l-.01-1.81L0-1.81.01,0Z" transform="translate(162.79 724.54) rotate(180)" fill="#fff"/>
              </g>
              <g id="Group-52" data-name="Group">
                <path id="Vector-48" data-name="Vector" d="M15.29-8.82l-.01-1.8L0-1.8.01,0Z" transform="translate(145.65 738.2) rotate(180)" fill="#fff"/>
              </g>
              <g id="Group-53" data-name="Group">
                <path id="Vector-49" data-name="Vector" d="M22.51-12.99,22.5-14.8,0-1.81.01,0Z" transform="translate(162.75 709.54) rotate(180)" fill="#fff"/>
              </g>
              <g id="Group-54" data-name="Group">
                <path id="Vector-50" data-name="Vector" d="M19.93-11.5l-.01-1.8L0-1.81.01,0Z" transform="translate(150.27 728.02) rotate(180)" fill="#fff"/>
              </g>
              <g id="Group-55" data-name="Group">
                <path id="Vector-51" data-name="Vector" d="M14.02-8.09l-.01-1.8L0-1.8V0Z" transform="translate(144.35 727.68) rotate(180)" fill="#fff"/>
              </g>
              <g id="Group-56" data-name="Group">
                <path id="Vector-52" data-name="Vector" d="M24.49-14.14l-.01-1.8L0-1.8V0Z" transform="translate(154.81 717.88) rotate(180)" fill="#fff"/>
              </g>
            </g>
            <g id="Group-57" data-name="Group">
              <path id="Vector-53" data-name="Vector" d="M7.41-4.28V-6.09L0-1.81.01,0Z" transform="translate(137.72 723.99) rotate(180)" fill="#fff"/>
            </g>
            <g id="Group-58" data-name="Group">
              <path id="Vector-54" data-name="Vector" d="M7.4-4.27V-6.08L0-1.8V0Z" transform="translate(137.76 739) rotate(180)" fill="#fff"/>
            </g>
            <g id="Group-59" data-name="Group">
              <path id="Vector-55" data-name="Vector" d="M11.21-6.45l-.03-8.86L0-8.86.03,0Z" transform="translate(221.31 727.37) rotate(180)" fill="#f2c557"/>
            </g>
            <g id="Group-60" data-name="Group">
              <path id="Vector-56" data-name="Vector" d="M11.21-6.45l-.03-8.86L0-8.86.03,0Z" transform="translate(192.48 744.01) rotate(180)" fill="#f2c557"/>
            </g>
            <g id="Group-61" data-name="Group">
              <path id="Vector-57" data-name="Vector" d="M11.2-6.46l-.02-8.86L0-8.86.03,0Z" transform="translate(235.76 732.21) rotate(180)" fill="#f2c557"/>
            </g>
            <g id="Group-62" data-name="Group">
              <path id="Vector-58" data-name="Vector" d="M11.2-6.45l-.02-8.86L0-8.86.02,0Z" transform="translate(221.34 740.54) rotate(180)" fill="#f2c557"/>
            </g>
            <g id="Group-63" data-name="Group">
              <path id="Vector-59" data-name="Vector" d="M11.2-6.45l-.02-8.86L0-8.86.02,0Z" transform="translate(206.93 748.86) rotate(180)" fill="#f2c557"/>
            </g>
            <g id="Group-64" data-name="Group">
              <path id="Vector-60" data-name="Vector" d="M11.21-6.46l-.03-8.85L0-8.86.03,0Z" transform="translate(192.52 757.18) rotate(180)" fill="#f2c557"/>
            </g>
            <g id="Group-65" data-name="Group">
              <path id="Vector-61" data-name="Vector" d="M11.2-6.45l-.02-8.86L0-8.86.02,0Z" transform="translate(178.1 765.5) rotate(180)" fill="#f2c557"/>
            </g>
          </g>
          <g id="Group-66" data-name="Group">
            <path id="Vector-62" data-name="Vector" d="M116.17-66.35l-2.61,1.51L99.91-56.96,98.1-55.92l-6.03,3.48-.56.32-9.49,5.48-2.01,1.16L73.97-42l-2.39,1.38L53.79-30.34l-3.96,2.29L43.8-24.57l-6.03,3.48-2.31,1.33-7.78,4.49-1.97,1.14-3.72,2.15L13.54-7.1,7.63-3.69,4.67-1.98,1.61-.21c-.05.03-.09.05-.13.07s-.07.03-.11.05c-.01,0-.01,0-.02.01H1.34c-.02.01-.05.02-.07.03a.292.292,0,0,1-.09.02.637.637,0,0,0-.07.02H1.09A.308.308,0,0,1,1,0H.86C.84,0,.82-.01.8-.01A1.091,1.091,0,0,1,.69-.07L.36-.26A.574.574,0,0,1,.14-.5.5.5,0,0,1,.09-.63L.06-.75A.5.5,0,0,1,.04-.87C.04-.91.03-.95.03-1V-7.29A2.423,2.423,0,0,1,0-7.76v-.8l6.02-3.47,2.32-1.34q5.79-3.345,11.59-6.69l4.16-2.4,6.03-3.48,6.03-3.48,6.03-3.48,6.04-3.48,12.07-6.97,6.04-3.48,6.03-3.48,6.03-3.48,6.03-3.48,6.03-3.48,6.03-3.48,6.03-3.48,6.02-3.48,6.02-3.48,6.02-3.47a9.072,9.072,0,0,0-2.74,3.19v2.65q.33.195.69.39l.21.12.78.45.15.09c.05.03.09.05.14.08.14.08.29.17.43.25l.06.03c.13.08.26.15.38.22.01.01.03.01.04.02a.2.2,0,0,0,.08.04.435.435,0,0,1,.07.04.406.406,0,0,0,.09.05.746.746,0,0,0,.12.07c.01,0,.01.01.02.01.04.02.08.05.12.07.12.07.22.13.32.18l.33.19c.03.02.07.04.1.06l.06.03c.01.01.02.01.03.02a.021.021,0,0,1,.02.02.01.01,0,0,1,.01.01c.02.01.03.02.04.02a.035.035,0,0,0,.02.01.035.035,0,0,1,.02.01.035.035,0,0,0,.02.01c.01,0,.01,0,.01.01h.01ZM.7-3.69c.04-.1.08-.19.12-.29-.11.23-.2.45-.29.67.01-.02.01-.03.02-.05Zm-.25.62c-.04.09-.07.18-.1.27C.38-2.89.41-2.98.45-3.07Zm-.18.55a1.543,1.543,0,0,0-.05.17A1.543,1.543,0,0,1,.27-2.52Zm-.15.57c-.01.02-.01.04-.02.06C.11-1.91.11-1.93.12-1.95Zm.95-6.01c-.52-.3-.87-.49-1-.56C.21-8.44.55-8.25,1.07-7.96Zm.34.2.01,1.31C1.41-7.12,1.41-7.78,1.41-7.76ZM.84-4.01a.313.313,0,0,0,.05-.1c.16-.33.33-.67.53-1.01C1.2-4.74,1.01-4.37.84-4.01Z" transform="translate(244.2 649) rotate(180)" fill="#393971"/>
            <path id="Vector-63" data-name="Vector" d="M4.37-.72V0s-.09-.06-.25-.15a.594.594,0,0,0-.08-.04H4.03L3.7-.38c-.07-.04-.15-.09-.24-.14a1.858,1.858,0,0,1-.19-.11c-.08-.04-.15-.09-.24-.13-.05-.03-.11-.06-.16-.09-.07-.04-.13-.07-.2-.11s-.15-.09-.22-.13-.18-.1-.27-.15a.558.558,0,0,0-.08-.05c-.14-.09-.3-.17-.46-.26l-.21-.12c-.19-.11-.39-.23-.59-.34Q.405-2.265,0-2.49V-5.14c.15-.26.31-.51.46-.75.05-.07.1-.14.15-.22.07-.1.14-.22.22-.32.03-.04.06-.07.09-.11.12-.16.23-.3.35-.44.05-.06.1-.13.15-.19l.07-.07c.05-.06.11-.12.16-.17.06-.07.13-.14.19-.21A1.07,1.07,0,0,1,2-7.76a.9.9,0,0,1,.1-.09l.07-.07c.09-.08.18-.15.26-.21a.351.351,0,0,1,.08-.05c.02-.01.03-.03.05-.04l.09-.06a1.858,1.858,0,0,1,.19-.11c.04-.02.07-.03.11-.05.01-.01.02-.01.04-.02a.076.076,0,0,0,.04-.02l.18-.06c.04-.01.07,0,.1-.01h.12a.665.665,0,0,1,.24.07L4-8.29a.01.01,0,0,0,.01.01.374.374,0,0,1,.13.12l.01.01a.879.879,0,0,1,.06.1c.01.02.02.05.03.07a.035.035,0,0,0,.01.02c0,.01,0,.01.01.02a.929.929,0,0,0,.04.13.127.127,0,0,0,.01.06c0,.02,0,.03.01.04s.01.03.01.05c0,.06.01.12.01.19V-.72Z" transform="translate(126.39 718.82) rotate(180)" fill="#30305e"/>
            <g id="Group-67" data-name="Group">
              <g id="Group-68" data-name="Group">
                <path id="Vector-64" data-name="Vector" d="M1.18-.163a2.617,2.617,0,0,0,1.19-2.05c0-.76-.54-1.05-1.19-.68A2.566,2.566,0,0,0,0-.843C-.01-.093.53.217,1.18-.163Z" transform="translate(132.12 717.757) rotate(180)" fill="#fff"/>
              </g>
              <g id="Group-69" data-name="Group">
                <path id="Vector-65" data-name="Vector" d="M1.2-.164a2.634,2.634,0,0,0,1.18-2.05c0-.75-.54-1.05-1.19-.68A2.629,2.629,0,0,0,0-.844C0-.084.54.216,1.2-.164Z" transform="translate(138.97 713.816) rotate(180)" fill="#fff"/>
              </g>
              <g id="Group-70" data-name="Group">
                <path id="Vector-66" data-name="Vector" d="M1.2-.163a2.583,2.583,0,0,0,1.18-2.06c0-.75-.54-1.05-1.19-.67A2.6,2.6,0,0,0,0-.843C0-.093.54.217,1.2-.163Z" transform="translate(145.8 709.867) rotate(180)" fill="#fff"/>
              </g>
            </g>
          </g>
        </g>
      </g>
      <path id="ICON_-_BOOKMARK" data-name="ICON - BOOKMARK" d="M0,2.76V18.136a.861.861,0,0,0,.486.772.9.9,0,0,0,.925-.081L8,13.991l6.588,4.836a.894.894,0,0,0,.925.081A.861.861,0,0,0,16,18.136V2.76A2.791,2.791,0,0,0,13.18,0H2.82A2.791,2.791,0,0,0,0,2.76Zm1.765,0A1.047,1.047,0,0,1,2.82,1.727H13.184A1.047,1.047,0,0,1,14.239,2.76V16.409l-5.71-4.188a.9.9,0,0,0-1.059,0L1.765,16.409Z" transform="translate(302 918)" fill="#373737"/>
      <path id="ICON_-_SEND" data-name="ICON - SEND" d="M.574,8.145l7.771,2.929,3.083,7.381a.908.908,0,0,0,.845.545h.008a.9.9,0,0,0,.841-.56L19.942,1.167a.827.827,0,0,0-.21-.914.949.949,0,0,0-.962-.2L.586,6.533A.85.85,0,0,0,.574,8.145ZM17.538,2.338l-5.29,13.4L10.11,10.617l4.057-3.854a.832.832,0,0,0,0-1.221.941.941,0,0,0-1.285,0L8.821,9.393,3.435,7.362Z" transform="translate(50 918)" fill="#373737"/>
      <path id="ICON_-_SHARE" data-name="ICON - SHARE" d="M3.469,6.267A3.362,3.362,0,0,0,0,9.5a3.362,3.362,0,0,0,3.469,3.231,3.607,3.607,0,0,0,2.114-.675l3.7,2.587a3.054,3.054,0,0,0-.223,1.128A3.362,3.362,0,0,0,12.531,19,3.362,3.362,0,0,0,16,15.769a3.362,3.362,0,0,0-3.469-3.231,3.62,3.62,0,0,0-2.155.7L6.7,10.672a3,3,0,0,0,0-2.349l3.671-2.567a3.62,3.62,0,0,0,2.155.7A3.362,3.362,0,0,0,16,3.227,3.359,3.359,0,0,0,12.526,0,3.362,3.362,0,0,0,9.057,3.231,3.039,3.039,0,0,0,9.279,4.36l-3.7,2.587A3.6,3.6,0,0,0,3.469,6.267ZM1.854,9.5a1.565,1.565,0,0,1,1.615-1.5A1.565,1.565,0,0,1,5.085,9.5,1.565,1.565,0,0,1,3.469,11,1.565,1.565,0,0,1,1.854,9.5Zm12.283,6.267a1.619,1.619,0,1,1-1.615-1.5A1.565,1.565,0,0,1,14.138,15.765ZM12.526,1.727a1.565,1.565,0,0,1,1.615,1.5,1.619,1.619,0,0,1-3.23,0A1.565,1.565,0,0,1,12.526,1.727Z" transform="translate(81 918)" fill="#373737"/>
    </g>
    <g id="CATEGORIES" transform="translate(0 3)">
      <text id="Sport" transform="translate(126 104)" fill="#bdbdbd" font-size="14" font-family="Nunito-Bold, Nunito" font-weight="700"><tspan x="0" y="14">Sport</tspan></text>
      <text id="Business" transform="translate(203 104)" fill="#bdbdbd" font-size="14" font-family="Nunito-Bold, Nunito" font-weight="700"><tspan x="0" y="14">Business</tspan></text>
      <text id="Politic" transform="translate(301 104)" fill="#bdbdbd" font-size="14" font-family="Nunito-Bold, Nunito" font-weight="700"><tspan x="0" y="14">Politic</tspan></text>
      <g id="Group_19" data-name="Group 19">
        <text id="All_news" data-name="All news" transform="translate(30 104)" fill="#fb5954" font-size="14" font-family="Nunito-Bold, Nunito" font-weight="700"><tspan x="0" y="14">All news</tspan></text>
        <path id="Vector_1" data-name="Vector 1" d="M0,0H56" transform="translate(30 133)" fill="none" stroke="#fb5954" stroke-linecap="round" stroke-width="2"/>
      </g>
    </g>
    <g id="NEWS_1" data-name="NEWS 1" transform="translate(0 -5)">
      <rect id="Rectangle_1-2" data-name="Rectangle 1" width="315" height="347" rx="11" transform="translate(30 171)" fill="#f4f5f9"/>
      <text id="Hunterz_Airlines_plane_catches_fire_on_Bantul_runway" data-name="Hunterz Airlines plane catches fire on Bantul runway" transform="translate(50 427)" fill="#373737" font-size="18" font-family="Nunito-ExtraBold, Nunito" font-weight="800"><tspan x="0" y="18">Jammin Airlines new travel </tspan><tspan x="0" y="42">policy for EU tourists</tspan></text>
      <text id="Breaking_News" data-name="Breaking News" transform="translate(50 193)" fill="#373737" font-size="14" font-family="Nunito-Bold, Nunito" font-weight="700"><tspan x="0" y="14">Breaking News</tspan></text>
      <text id="_4_Hours_ago-3" data-name="4 Hours ago" transform="translate(50 481)" fill="#bdbdbd" font-size="12" font-family="Nunito-Bold, Nunito" font-weight="700"><tspan x="0" y="12">4 Hours ago</tspan></text>
      <g id="ICON_-_MORE-2" data-name="ICON - MORE">
        <circle id="Ellipse_1-2" data-name="Ellipse 1" cx="2" cy="2" r="2" transform="translate(308 195)" fill="#666"/>
        <circle id="Ellipse_2-2" data-name="Ellipse 2" cx="2" cy="2" r="2" transform="translate(308 201)" fill="#666"/>
        <circle id="Ellipse_3-2" data-name="Ellipse 3" cx="2" cy="2" r="2" transform="translate(308 207)" fill="#666"/>
      </g>
      <g id="Groupe_6" data-name="Groupe 6">
        <rect id="Rectangle_5" data-name="Rectangle 5" width="275" height="187" rx="11" transform="translate(50 232)" fill="#ff7c78"/>
        <g id="ILLUSTRATION-2" data-name="ILLUSTRATION">
          <path id="Vector-67" data-name="Vector" d="M3.7-25.431C2.436-21.422-1.577-1.452.671-.181s4.787-4.009,17-20.745Z" transform="translate(169.962 298.973) rotate(180)" fill="#f0fbff"/>
          <path id="Vector-68" data-name="Vector" d="M20.91-1.864,2.829-12.91,0-4.311,8.4,0Z" transform="translate(197.451 372.565) rotate(180)" fill="#445780"/>
          <path id="Vector-69" data-name="Vector" d="M20.91-1.854,2.829-12.9,0-4.3,8.4,0Z" transform="translate(161.955 376.606) rotate(180)" fill="#445780"/>
          <path id="Vector-70" data-name="Vector" d="M20.91-1.854,2.829-12.9,0-4.311,8.4,0Z" transform="translate(235.765 340.871) rotate(180)" fill="#445780"/>
          <path id="Vector-71" data-name="Vector" d="M20.9-1.854,2.818-12.9,0-4.311,8.4,0Z" transform="translate(242.38 323.229) rotate(180)" fill="#445780"/>
          <path id="Vector-72" data-name="Vector" d="M.055-80.554c.4-1.617,14.36-1.757,30.774,7.63s55.976,33.084,67.41,46.3,20.8,23.3,19.05,26.23S91.494-11.551,80.652-17.133s-46.306-25.25-58.031-31.7S5.035-66.167,4.454-68.214-.537-78.2.055-80.554Z" transform="translate(260 312.95) rotate(180)" fill="#fff"/>
          <path id="Vector-73" data-name="Vector" d="M98.238-26.629c11.434,13.212,20.8,23.3,19.05,26.23-.172.28-.549.4-1.086.4-5.41-10.841-20.814-29.1-41.089-42C50.426-57.72,22.578-81.633,0-80.1a1.567,1.567,0,0,1,.054-.463c.4-1.617,14.36-1.757,30.774,7.63C47.242-63.528,86.8-39.841,98.238-26.629Z" transform="translate(259.999 312.948) rotate(180)" fill="#d1deee"/>
          <path id="Vector-74" data-name="Vector" d="M28.429-.019C31.15.7,74.735-19.546,107.854-24.245c0,0,.151-2.2-4.4-3.675S10.541-18.371,0-17.057C0-17.057,24.03-1.193,28.429-.019Z" transform="translate(214.855 355.853) rotate(180)" fill="#fff"/>
          <path id="Vector-75" data-name="Vector" d="M42.06-45.154C33.853-38.688,23.979-27.179,4.94,0,4.94,0-.137-1.207,0-5.992S16.761-47.363,21.548-56.879C21.548-56.879,45.642-47.967,42.06-45.154Z" transform="translate(246.073 298.982) rotate(180)" fill="#fff"/>
          <path id="Vector-76" data-name="Vector" d="M0-41.695c-.086-1.315,15.177,7.026,16.221,9.009S24.654,0,21.8,0s-5.561-1.638-7.347-5.485C12.843-8.966.388-35.822,0-41.695Z" transform="translate(164.3 283) rotate(180)" fill="#445780"/>
          <path id="Vector-77" data-name="Vector" d="M15.428-.5C17.955-1.635,37.8-10,40.243-10.687s2.248-3.136-4.69-3.233S1.165-14.61.089-13.241C-.987-11.851,7.9,2.88,15.428-.5Z" transform="translate(158.527 319.105) rotate(180)" fill="#f0fbff"/>
          <path id="Vector-78" data-name="Vector" d="M5.864-4.27c.312-2.554-.731-4.774-2.334-4.979S.367-7.547.055-4.992.787-.218,2.389-.014,5.552-1.716,5.864-4.27Z" transform="translate(199.012 376.56) rotate(180)" fill="#f0f9fd"/>
          <path id="Vector-79" data-name="Vector" d="M2.135-6.9c-.8,0-1.85,1.326-2.087,3.233C-.2-1.692.543-.1,1.371,0h.011c.882,0,1.925-1.326,2.162-3.233C3.792-5.205,3.049-6.789,2.221-6.9Z" transform="translate(197.854 377.748) rotate(180)" fill="#d1deee"/>
          <path id="Vector-80" data-name="Vector" d="M5.864-4.27c.312-2.554-.731-4.774-2.334-4.979S.367-7.546.055-4.992.787-.218,2.389-.014,5.552-1.727,5.864-4.27Z" transform="translate(163.516 380.591) rotate(180)" fill="#f0f9fd"/>
          <path id="Vector-81" data-name="Vector" d="M2.135-6.9c-.8,0-1.85,1.326-2.087,3.233C-.2-1.692.543-.1,1.371,0,2.253,0,3.3-1.326,3.533-3.233,3.781-5.205,3.039-6.789,2.21-6.9Z" transform="translate(162.358 381.779) rotate(180)" fill="#d1deee"/>
          <path id="Vector-82" data-name="Vector" d="M5.864-4.27c.312-2.543-.731-4.774-2.334-4.979S.367-7.546.055-4.992.787-.218,2.389-.014,5.552-1.727,5.864-4.27Z" transform="translate(237.326 344.855) rotate(180)" fill="#f0f9fd"/>
          <path id="Vector-83" data-name="Vector" d="M2.135-6.908c-.8,0-1.85,1.336-2.087,3.244C-.2-1.692.543-.1,1.371,0h.011c.882,0,1.925-1.326,2.162-3.233C3.792-5.205,3.049-6.8,2.221-6.9Z" transform="translate(236.168 346.033) rotate(180)" fill="#d1deee"/>
          <path id="Vector-84" data-name="Vector" d="M5.864-4.27c.312-2.543-.731-4.774-2.334-4.979S.367-7.546.055-4.992.787-.218,2.389-.014,5.552-1.727,5.864-4.27Z" transform="translate(243.952 327.214) rotate(180)" fill="#f0f9fd"/>
          <path id="Vector-85" data-name="Vector" d="M2.135-6.9c-.8,0-1.85,1.326-2.087,3.233C-.2-1.692.543-.1,1.371,0h.011c.882,0,1.925-1.326,2.162-3.233C3.792-5.205,3.049-6.789,2.221-6.9Z" transform="translate(242.794 328.402) rotate(180)" fill="#d1deee"/>
          <g id="Group-71" data-name="Group">
            <path id="Vector-86" data-name="Vector" d="M7.917-2.263A10.177,10.177,0,0,0,2.861,0,29.575,29.575,0,0,1,0-5,9.856,9.856,0,0,1,7.917-7.748Z" transform="translate(255.352 375.647) rotate(180)" fill="#445780"/>
            <path id="Vector-87" data-name="Vector" d="M6.056,0A20.253,20.253,0,0,0,0-.787V-5.97A16.276,16.276,0,0,1,4.593-4.408C8.3-2.457,6.056,0,6.056,0Z" transform="translate(246.07 377.253) rotate(180)" fill="#445780"/>
          </g>
          <g id="Group-72" data-name="Group">
            <g id="Group-73" data-name="Group">
              <path id="Vector-88" data-name="Vector" d="M.968,0,0-.614V-2.382l.968.614Z" transform="translate(203.227 360.258) rotate(180)" fill="#445780"/>
              <path id="Vector-89" data-name="Vector" d="M.968,0,0-.625V-2.382l.968.614Z" transform="translate(205.152 361.486) rotate(180)" fill="#445780"/>
              <path id="Vector-90" data-name="Vector" d="M.968,0,0-.614V-2.371l.968.614Z" transform="translate(207.089 362.726) rotate(180)" fill="#445780"/>
              <path id="Vector-91" data-name="Vector" d="M.968,0,0-.614V-2.382l.968.614Z" transform="translate(210.95 365.183) rotate(180)" fill="#445780"/>
              <path id="Vector-92" data-name="Vector" d="M.968,0,0-.614V-2.371l.968.614Z" transform="translate(209.014 363.954) rotate(180)" fill="#445780"/>
              <path id="Vector-93" data-name="Vector" d="M.957,0,0-.614V-2.371l.957.614Z" transform="translate(197.429 356.572) rotate(180)" fill="#445780"/>
              <path id="Vector-94" data-name="Vector" d="M.968,0,0-.614V-2.371l.968.614Z" transform="translate(199.366 357.801) rotate(180)" fill="#445780"/>
              <path id="Vector-95" data-name="Vector" d="M.957,0,0-.614V-2.382l.957.625Z" transform="translate(201.291 359.029) rotate(180)" fill="#445780"/>
              <path id="Vector-96" data-name="Vector" d="M.968,0,0-.614V-2.382l.968.614Z" transform="translate(212.875 366.411) rotate(180)" fill="#445780"/>
              <path id="Vector-97" data-name="Vector" d="M.968,0,0-.614V-2.382l.968.614Z" transform="translate(220.599 371.336) rotate(180)" fill="#445780"/>
              <path id="Vector-98" data-name="Vector" d="M.957,0,0-.625V-2.382l.957.614Z" transform="translate(222.524 372.565) rotate(180)" fill="#445780"/>
              <path id="Vector-99" data-name="Vector" d="M.957,0,0-.614V-2.382l.957.625Z" transform="translate(218.662 370.108) rotate(180)" fill="#445780"/>
              <path id="Vector-100" data-name="Vector" d="M.968,0,0-.614V-2.371l.968.614Z" transform="translate(216.737 368.879) rotate(180)" fill="#445780"/>
              <path id="Vector-101" data-name="Vector" d="M.957,0,0-.614V-2.371l.957.614Z" transform="translate(214.801 367.651) rotate(180)" fill="#445780"/>
              <path id="Vector-102" data-name="Vector" d="M.968,0,0-.614V-2.382l.968.614Z" transform="translate(195.504 355.333) rotate(180)" fill="#445780"/>
              <path id="Vector-103" data-name="Vector" d="M.968-1.757V0L0-.614V-2.371Z" transform="translate(224.46 373.804) rotate(180)" fill="#445780"/>
              <path id="Vector-104" data-name="Vector" d="M.968,0,0-.614V-2.371l.968.614Z" transform="translate(174.271 341.797) rotate(180)" fill="#445780"/>
              <path id="Vector-105" data-name="Vector" d="M.968,0,0-.614V-2.382l.968.614Z" transform="translate(170.409 339.33) rotate(180)" fill="#445780"/>
              <path id="Vector-106" data-name="Vector" d="M.957,0,0-.614V-2.371l.957.614Z" transform="translate(172.335 340.569) rotate(180)" fill="#445780"/>
              <path id="Vector-107" data-name="Vector" d="M.957,0,0-.614V-2.382l.957.625Z" transform="translate(176.196 343.026) rotate(180)" fill="#445780"/>
              <path id="Vector-108" data-name="Vector" d="M.968,0,0-.614V-2.382l.968.625Z" transform="translate(168.484 338.101) rotate(180)" fill="#445780"/>
              <path id="Vector-109" data-name="Vector" d="M.968,0,0-.614V-2.382l.968.625Z" transform="translate(226.385 375.033) rotate(180)" fill="#445780"/>
              <path id="Vector-110" data-name="Vector" d="M.968,0,0-.614V-2.382l.968.614Z" transform="translate(178.132 344.255) rotate(180)" fill="#445780"/>
              <path id="Vector-111" data-name="Vector" d="M.968,0,0-.614V-2.371l.968.614Z" transform="translate(166.548 336.873) rotate(180)" fill="#445780"/>
              <path id="Vector-112" data-name="Vector" d="M.957,0,0-.614V-2.382l.957.614Z" transform="translate(180.058 345.483) rotate(180)" fill="#445780"/>
              <path id="Vector-113" data-name="Vector" d="M.968,0,0-.614V-2.371l.968.614Z" transform="translate(189.717 351.647) rotate(180)" fill="#445780"/>
              <path id="Vector-114" data-name="Vector" d="M.957,0,0-.614V-2.382l.957.614Z" transform="translate(193.568 354.104) rotate(180)" fill="#445780"/>
              <path id="Vector-115" data-name="Vector" d="M.968,0,0-.614V-2.371l.968.614Z" transform="translate(191.643 352.876) rotate(180)" fill="#445780"/>
              <path id="Vector-116" data-name="Vector" d="M.968,0,0-.625V-2.382l.968.614Z" transform="translate(187.781 350.408) rotate(180)" fill="#445780"/>
              <path id="Vector-117" data-name="Vector" d="M.968,0,0-.614V-2.371l.968.614Z" transform="translate(181.994 346.722) rotate(180)" fill="#445780"/>
              <path id="Vector-118" data-name="Vector" d="M.968,0,0-.614V-2.371l.968.614Z" transform="translate(183.919 347.951) rotate(180)" fill="#445780"/>
              <path id="Vector-119" data-name="Vector" d="M.968,0,0-.614V-2.382l.968.614Z" transform="translate(185.855 349.18) rotate(180)" fill="#445780"/>
            </g>
          </g>
          <path id="Vector-120" data-name="Vector" d="M15.5-.14a2.226,2.226,0,0,1-.6-.226,2.97,2.97,0,0,1-.753-.453,4.52,4.52,0,0,1-.817-.722,6.5,6.5,0,0,1-.828-.991,9.734,9.734,0,0,1-.817-1.229,13.752,13.752,0,0,1-.764-1.433c-.516-1-.936-2.155-1.431-3.319s-1.011-2.425-1.549-3.707c-1.043-2.586-2.151-5.334-3.259-8.093s-2.216-5.507-3.216-8.1A29.945,29.945,0,0,1,.151-32.255,5.109,5.109,0,0,1,0-33.268a1.234,1.234,0,0,1,.495-1.164,1.5,1.5,0,0,1,1.14-.032,5.448,5.448,0,0,1,.839.334A19.607,19.607,0,0,1,5.1-32.535c.742.517,1.388.981,1.9,1.369,1.043.776,1.613,1.25,1.613,1.25s-.635-.388-1.743-1.056c-.559-.334-1.226-.744-2.011-1.185S3.184-33.1,2.205-33.526a6.915,6.915,0,0,0-.753-.259.926.926,0,0,0-.581,0c-.054.011-.108.2-.086.474a4.329,4.329,0,0,0,.172.841,37.182,37.182,0,0,0,1.452,3.686c.129.291.247.593.376.884L9.3-24.388l-5.916-2.1c.785,1.875,1.581,3.815,2.377,5.755.129.334.258.668.4,1.013l5.755,3.19L6.733-18.31c.753,1.951,1.5,3.88,2.184,5.722.226.614.441,1.218.656,1.8l4.969,3L10.089-9.365c.065.183.14.366.2.55.441,1.218.774,2.339,1.226,3.352a14.728,14.728,0,0,0,.656,1.433,8.548,8.548,0,0,0,.678,1.25,6.22,6.22,0,0,0,.71,1.013A4.958,4.958,0,0,0,14.284-1a2.989,2.989,0,0,0,.678.507,2.22,2.22,0,0,0,.559.3c.323.129.495.194.495.194S15.833-.054,15.5-.14Z" transform="translate(159.814 285.489) rotate(180)" fill="#d1deee"/>
        </g>
        <text id="_PrayforHunterz" data-name="#PrayforHunterz" transform="translate(91 246)" fill="#fff" font-size="24.316" font-family="Nunito-ExtraBold, Nunito" font-weight="800"><tspan x="0" y="25">#TravelSafe</tspan></text>
      </g>
    </g>
    <g id="APPBAR" transform="translate(0 3)">
      <text id="Brita" transform="translate(30 51)" fill="#fb5954" font-size="24" font-family="Nunito-ExtraBold, Nunito" font-weight="800"><tspan x="0" y="0">NewsBooth</tspan></text>
      <g id="ICON_-_SETTING" data-name="ICON - SETTING">
        <path id="Vector-121" data-name="Vector" d="M17.358,6.926a3.476,3.476,0,0,1-.844-.68,3.184,3.184,0,0,1,.081-1.109,2.6,2.6,0,0,0-.384-2.5,3,3,0,0,0-2.64-.364,3.626,3.626,0,0,1-1.17.076,3.47,3.47,0,0,1-.717-.8C11.169.858,10.528,0,9.5,0S7.823.858,7.309,1.549a3.5,3.5,0,0,1-.717.8,3.738,3.738,0,0,1-1.17-.076,3,3,0,0,0-2.64.364,2.613,2.613,0,0,0-.384,2.5A3.093,3.093,0,0,1,2.479,6.25a3.509,3.509,0,0,1-.848.68C.905,7.413,0,8.02,0,9s.905,1.585,1.634,2.072a3.587,3.587,0,0,1,.848.68A3.189,3.189,0,0,1,2.4,12.859a2.6,2.6,0,0,0,.384,2.5,3.012,3.012,0,0,0,2.64.364,3.621,3.621,0,0,1,1.17-.076,3.424,3.424,0,0,1,.717.8C7.827,17.142,8.472,18,9.5,18s1.673-.858,2.187-1.549a3.5,3.5,0,0,1,.717-.8,3.65,3.65,0,0,1,1.17.08,3,3,0,0,0,2.64-.364,2.613,2.613,0,0,0,.384-2.5,3.089,3.089,0,0,1-.081-1.109,3.509,3.509,0,0,1,.848-.68C18.095,10.587,19,9.976,19,9S18.087,7.413,17.358,6.926Zm-1,2.81a3.651,3.651,0,0,0-1.443,1.389,3.515,3.515,0,0,0-.027,2,3.689,3.689,0,0,1,.092,1.073,4.2,4.2,0,0,1-1.128-.087,4.115,4.115,0,0,0-2.114.025,3.689,3.689,0,0,0-1.466,1.367c-.211.284-.606.814-.767.862-.184-.047-.579-.574-.79-.862a3.663,3.663,0,0,0-1.466-1.367,2.453,2.453,0,0,0-.905-.153,8.073,8.073,0,0,0-1.209.127,4.323,4.323,0,0,1-1.132.087A3.656,3.656,0,0,1,4.1,13.132a3.515,3.515,0,0,0-.027-2A3.677,3.677,0,0,0,2.628,9.74a3.746,3.746,0,0,1-.909-.727c.05-.175.606-.549.909-.749A3.651,3.651,0,0,0,4.071,6.875a3.515,3.515,0,0,0,.027-2A3.674,3.674,0,0,1,4.006,3.8a4.285,4.285,0,0,1,1.128.087,4.116,4.116,0,0,0,2.114-.025A3.689,3.689,0,0,0,8.713,2.5c.211-.284.606-.814.767-.862.184.047.579.574.79.862a3.663,3.663,0,0,0,1.466,1.367,4.115,4.115,0,0,0,2.114.025A4.3,4.3,0,0,1,14.979,3.8a3.656,3.656,0,0,1-.092,1.069,3.515,3.515,0,0,0,.027,2,3.677,3.677,0,0,0,1.443,1.389,3.541,3.541,0,0,1,.9.738A3.518,3.518,0,0,1,16.36,9.736Z" transform="translate(288 36)" fill="#333"/>
        <path id="Vector-122" data-name="Vector" d="M3.879,0A3.786,3.786,0,0,0,0,3.676,3.783,3.783,0,0,0,3.879,7.351,3.783,3.783,0,0,0,7.758,3.676,3.786,3.786,0,0,0,3.879,0Zm0,5.715a2.1,2.1,0,0,1-2.152-2.04,2.1,2.1,0,0,1,2.152-2.04,2.1,2.1,0,0,1,2.152,2.04A2.1,2.1,0,0,1,3.879,5.715Z" transform="translate(293.617 41.323)" fill="#333"/>
      </g>
      <path id="ICON_-_NOTIFICATION" data-name="ICON - NOTIFICATION" d="M8.345,15.8A3.233,3.233,0,0,0,11.481,18a3.189,3.189,0,0,0,3.231-2.622c1.83-.364,2.9-.953,3.2-1.771.315-.873-.209-1.785-1.55-2.716-1.543-1.069-1.924-3.113-2.29-5.087C13.555,3.084,12.981,0,9,0S4.437,3.084,3.93,5.8c-.37,1.975-.748,4.018-2.29,5.087-1.346.931-1.865,1.847-1.55,2.716C.593,15,3.371,15.742,8.345,15.8Zm3.136.564a1.536,1.536,0,0,1-1.208-.575q1.375-.033,2.507-.142A1.509,1.509,0,0,1,11.481,16.364ZM2.7,12.2c2.105-1.458,2.566-3.935,2.975-6.12C6.22,3.16,6.617,1.636,9,1.636S11.776,3.16,12.319,6.08c.405,2.185.87,4.658,2.975,6.12.842.582.925.887.937.887-.114.211-.874.549-2.511.793h-.028a.078.078,0,0,0-.028.007A32.973,32.973,0,0,1,9,14.167c-5.033,0-7.044-.731-7.225-1.051C1.773,13.113,1.825,12.811,2.7,12.2Z" transform="translate(327 36)" fill="#333"/>
    </g>
    <g id="NAVIGATION_BAR" data-name="NAVIGATION BAR">
      <g transform="matrix(1, 0, 0, 1, 0, 0)" filter="url(#Rectangle_2)">
        <rect id="Rectangle_2-2" data-name="Rectangle 2" width="375" height="80" rx="8" transform="translate(0 735)" fill="#fff"/>
      </g>
    </g>
    <g id="Groupe_2" data-name="Groupe 2" transform="translate(111.38 748)">
      <text id="Sport-2" data-name="Sport" transform="translate(-0.38 35)" fill="#bdbdbd" font-size="12" font-family="Nunito-Bold, Nunito" font-weight="700"><tspan x="4.07" y="12">Search</tspan></text>
      <path id="ICON_-_SEARCH" data-name="ICON - SEARCH" d="M12.688,24.558a12.866,12.866,0,0,0,7.741-2.576l8.185,7.636a1.44,1.44,0,0,0,1.992-.036,1.33,1.33,0,0,0-.038-1.927l-8.1-7.564a12,12,0,0,0,2.912-7.818A12.5,12.5,0,0,0,12.688,0,12.5,12.5,0,0,0,0,12.279,12.5,12.5,0,0,0,12.688,24.558Zm0-21.83a9.726,9.726,0,0,1,9.87,9.552,9.726,9.726,0,0,1-9.87,9.552,9.726,9.726,0,0,1-9.87-9.552A9.726,9.726,0,0,1,12.688,2.727Z" transform="translate(8 0)" fill="#bdbdbd"/>
    </g>
    <g id="Groupe_3" data-name="Groupe 3" transform="translate(185.499 748)">
      <text id="Business-2" data-name="Business" transform="translate(-0.499 35)" fill="#bdbdbd" font-size="12" font-family="Nunito-Bold, Nunito" font-weight="700"><tspan x="5.71" y="12">Read later</tspan></text>
      <path id="ICON_-_BOOKMARK-2" data-name="ICON - BOOKMARK" d="M0,4.358V28.636a1.361,1.361,0,0,0,.76,1.218,1.39,1.39,0,0,0,1.446-.127L12.5,22.091l10.294,7.636a1.384,1.384,0,0,0,1.446.127A1.361,1.361,0,0,0,25,28.636V4.358A4.383,4.383,0,0,0,20.594,0H4.406A4.383,4.383,0,0,0,0,4.358Zm2.757,0a1.644,1.644,0,0,1,1.648-1.63H20.6a1.644,1.644,0,0,1,1.648,1.63V25.909L13.327,19.3a1.391,1.391,0,0,0-1.654,0L2.757,25.909Z" transform="translate(21 0)" fill="#bdbdbd"/>
    </g>
    <g id="Groupe_4" data-name="Groupe 4" transform="translate(280.146 748)">
      <text id="Politic-2" data-name="Politic" transform="translate(-0.146 35)" fill="#bdbdbd" font-size="12" font-family="Nunito-Bold, Nunito" font-weight="700"><tspan x="4.048" y="12">Profile</tspan></text>
      <g id="ICON_-_USER" data-name="ICON - USER" transform="translate(8 0)">
        <g id="Group_33" data-name="Group 33">
          <path id="Vector-123" data-name="Vector" d="M8.615,16.085c.731,0,1.487-.012,2.261-.03,1.687-.03,3.561-.03,5.248,0,4.011.073,7.472.139,9.427-1.715A5.058,5.058,0,0,0,27,10.509C27,4.715,20.947,0,13.5,0S0,4.715,0,10.509a5.058,5.058,0,0,0,1.449,3.83C3.024,15.836,5.585,16.085,8.615,16.085ZM13.5,2.727c5.891,0,10.689,3.491,10.689,7.782a2.335,2.335,0,0,1-.606,1.885c-1.112,1.055-4.167,1-7.4.939-1.724-.03-3.636-.03-5.36,0-3.236.061-6.291.121-7.4-.939a2.316,2.316,0,0,1-.606-1.879C2.811,6.218,7.6,2.727,13.5,2.727Z" transform="translate(0 13.915)" fill="#bdbdbd"/>
          <path id="Vector-124" data-name="Vector" d="M6.4,13.545c3.6,0,6.4-3.945,6.4-7.339A6.312,6.312,0,0,0,6.4,0,6.312,6.312,0,0,0,0,6.206C0,9.6,2.792,13.545,6.4,13.545Zm0-10.818A3.538,3.538,0,0,1,9.983,6.206c0,2.012-1.737,4.612-3.586,4.612s-3.586-2.6-3.586-4.612A3.538,3.538,0,0,1,6.4,2.727Z" transform="translate(7.103)" fill="#bdbdbd"/>
        </g>
      </g>
    </g>
    <g id="Groupe_1" data-name="Groupe 1" transform="translate(51 748)">
      <text id="All_news-2" data-name="All news" transform="translate(1.146 35)" fill="#fb5954" font-size="12" font-family="Nunito-Bold, Nunito" font-weight="700"><tspan x="2.686" y="12">Feed</tspan></text>
      <path id="ICON_-_EXPLORE" data-name="ICON - EXPLORE" d="M32.207.175a1.553,1.553,0,0,0-1.533.058l-9.183,5.74L12.308.232C12.3.226,12.282.226,12.275.22a1.348,1.348,0,0,0-.313-.135.5.5,0,0,0-.093-.026A1.161,1.161,0,0,0,11.5,0a1.462,1.462,0,0,0-.38.051c-.033.006-.06.019-.093.026a1.348,1.348,0,0,0-.313.135c-.013.006-.027.006-.033.013L.68,6.474A1.457,1.457,0,0,0,0,7.695V28.553a1.453,1.453,0,0,0,.78,1.273,1.553,1.553,0,0,0,1.533-.058L11.5,24.034l9.183,5.733c.013.006.027.006.033.013a1.348,1.348,0,0,0,.313.135.5.5,0,0,0,.093.026,1.429,1.429,0,0,0,.76,0c.033-.006.06-.019.093-.026a1.482,1.482,0,0,0,.313-.135c.013-.006.027-.006.033-.013l10-6.248A1.445,1.445,0,0,0,33,22.305V1.447A1.492,1.492,0,0,0,32.207.175ZM12.995,4.108l7,4.371V25.892l-7-4.371ZM3,8.479l7-4.371V21.521L3,25.892ZM29.988,21.521l-7,4.371V8.479l7-4.371Z" transform="translate(0 0)" fill="#fb5954"/>
    </g>
  </g>
</svg>
