<svg xmlns="http://www.w3.org/2000/svg" xmlns:xlink="http://www.w3.org/1999/xlink" width="375" height="812" viewBox="0 0 375 812">
  <defs>
    <clipPath id="clip-Login">
      <rect width="375" height="812"/>
    </clipPath>
  </defs>
  <g id="Login" clip-path="url(#clip-Login)">
    <rect width="375" height="812" fill="#fff"/>
    <g id="SAVE_LOGIN_INFO" data-name="SAVE LOGIN INFO" transform="translate(0 -39)">
      <text id="Save_login_info-2" data-name="Save login info" transform="translate(60 606)" fill="#373737" font-size="14" font-family="Nunito-Bold, Nunito" font-weight="700"><tspan x="0" y="14">Save login info</tspan></text>
      <g id="Rectangle_5" data-name="Rectangle 5" transform="translate(30 605)" fill="none" stroke="#e3e3e3" stroke-width="1">
        <rect width="20" height="20" rx="4" stroke="none"/>
        <rect x="0.5" y="0.5" width="19" height="19" rx="3.5" fill="none"/>
      </g>
    </g>
    <g id="SAVE_LOGIN_INFO-3" data-name="SAVE LOGIN INFO" transform="translate(86 153)">
      <text id="Save_login_info-4" data-name="Save login info" transform="translate(43 606)" fill="#7c79fc" font-size="14" font-family="Nunito-Bold, Nunito" font-weight="700"><tspan x="0" y="14">Create an account</tspan></text>
    </g>
    <g id="BUTTON_-_LOGIN" data-name="BUTTON - LOGIN" transform="translate(0 -39)">
      <rect id="Rectangle_2" data-name="Rectangle 2" width="315" height="70" rx="8" transform="translate(30 707)" fill="#373737"/>
      <text id="Login-2" data-name="Login" transform="translate(164 729)" fill="#fff" font-size="18" font-family="Nunito-ExtraBold, Nunito" font-weight="800"><tspan x="0" y="18">Login</tspan></text>
    </g>
    <g id="Groupe_5" data-name="Groupe 5">
      <rect id="Rectangle_6" data-name="Rectangle 6" width="375" height="265" transform="translate(0 1)" fill="#f4f5f9"/>
      <g id="ILLUSTRATION" transform="translate(0 -39)">
        <g id="Group">
          <g id="Group-2" data-name="Group">
            <path id="Vector" d="M16.74-38.21v.07L14.9-11.26a.127.127,0,0,1-.01.06.127.127,0,0,1-.01.06c0,.02-.01.04-.01.07s-.01.04-.01.07-.01.04-.01.07a.254.254,0,0,1-.02.07.254.254,0,0,1-.02.07.637.637,0,0,0-.02.07c-.01.02-.01.04-.02.06s-.01.04-.02.06,0,.01-.01.02-.01.02-.01.03-.01.03-.02.05-.01.03-.02.05a.076.076,0,0,1-.02.04c0,.01-.01.03-.01.04s-.01.03-.02.04-.01.02-.02.04-.01.02-.01.03-.01.02-.01.03v.01c0,.01-.01.02-.01.03s-.01.02-.02.03-.01.02-.02.04-.01.02-.02.04-.01.02-.02.04-.01.03-.02.04-.02.03-.03.05-.02.03-.03.05a.01.01,0,0,1-.01.01c-.01.01-.01.02-.02.03a1.739,1.739,0,0,1-.11.18c-.01.02-.03.04-.04.06a.076.076,0,0,0-.02.04.138.138,0,0,0-.03.04c-.01.01-.02.03-.03.04s-.02.02-.02.03-.02.02-.02.03-.02.02-.02.03-.02.02-.02.03l-.03.03-.03.03L14-9.29l-.01.01c-.01.01-.02.02-.02.03s-.02.03-.03.04-.02.03-.03.04-.03.03-.04.05-.03.03-.04.05l-.05.05-.01.01-.04.04-.05.05c-.02.02-.04.03-.05.05s-.03.03-.05.04a.218.218,0,0,0-.05.04L1.89-.24c-.02.01-.03.02-.05.03s-.03.02-.05.03-.03.02-.05.03-.03.02-.05.03-.03.02-.05.03-.03.02-.05.02-.03.01-.05.02-.03.01-.05.02-.03.01-.05.01-.02,0-.02.01H1.4c-.02,0-.04.01-.06.01H1.21a.235.235,0,0,1-.08-.02c-.03-.01-.05-.02-.08-.03C.7-.24.35-.43,0-.63a.48.48,0,0,0,.17.05H.18A.623.623,0,0,0,.37-.59H.38A1.187,1.187,0,0,0,.6-.67,1.576,1.576,0,0,0,.84-.82L12.5-9.39a1.638,1.638,0,0,0,.25-.21,3.716,3.716,0,0,0,.46-.56c.06-.09.12-.19.18-.29a.076.076,0,0,0,.02-.04,3.879,3.879,0,0,0,.29-.67,2.136,2.136,0,0,0,.09-.34c.02-.11.04-.22.05-.33l1.84-26.88a1.4,1.4,0,0,0,0-.29v-.01a1.138,1.138,0,0,0-.05-.23.638.638,0,0,0-.08-.14.219.219,0,0,1-.03-.05.53.53,0,0,0-.12-.1l1.06.57a.318.318,0,0,1,.12.11.219.219,0,0,1,.03.05c.01.02.03.04.04.06a.3.3,0,0,0,.04.08.185.185,0,0,1,.02.07.637.637,0,0,1,.02.07c0,.02.01.04.01.07v.24Z" transform="translate(136.373 88.799) rotate(180)" fill="#fb5954"/>
            <g id="Group-3" data-name="Group">
              <path id="Vector-2" data-name="Vector" d="M12.8-8.818a3.785,3.785,0,0,0,1.34-2.45l1.84-26.88c.06-.85-.45-1.13-1.13-.63l-11.66,8.57a3.761,3.761,0,0,0-1.34,2.45L0-.878c-.06.85.44,1.13,1.13.63Z" transform="translate(136.678 89.371) rotate(180)" fill="#dc4844"/>
            </g>
          </g>
        </g>
        <path id="Vector-3" data-name="Vector" d="M1.7-3.118c-.13-2.67-1.37-6.01-1.5-11.47s-1.09-7.91,2.79-9.02c1.78-.51,9.5.3,7.72,7.54s.25,12.06-1.91,15.11S1.7-3.118,1.7-3.118Z" transform="translate(78.342 259.491) rotate(180)" fill="#7f3d12"/>
        <path id="Vector-4" data-name="Vector" d="M16.906,0C14.116-1.02,3.026-5.93,1.5-7.28c-2.12-1.86-2.75-2.71,3.34-2.71s13.71,1.65,14.6.89,5.33-1.06,5.71.59-.51,5.79-1.08,7.15S16.906,0,16.906,0Z" transform="translate(122.269 245.859) rotate(180)" fill="#7f3d12"/>
        <path id="Vector-5" data-name="Vector" d="M10.087-80.79s8.05,22.61,7.03,29.72,4.87,18.9,6.9,32.51S-.493,7.15.007-5.02s2.27-37.83,2.61-44.61-.08-30.39-.08-30.39S9.3-83.5,10.087-80.79Z" transform="translate(107.89 165.839) rotate(180)" fill="#f3534e"/>
        <path id="Vector-6" data-name="Vector" d="M0-5.205l13.38-85.27s.17-1.33,5.42-1.32c1.36,0,3.61-.04,3.84,1.77.82,6.64,3.45,24.57,1.97,37-2.73,22.95,4.17,34.95-.23,51.45C22.94,3.825,14.82-6.5,0-5.205Z" transform="translate(90.773 172.344) rotate(180)" fill="#fb5954"/>
        <path id="Vector-7" data-name="Vector" d="M13-8.464c-.78-2.49-3.52-2.27-5.91-5.62-.61-.86-1.61.81.44,3.29.88,1.06-.28,2.46-2.54.02s-2.93-5.06-4.63-.74c-1.08,2.74.3,5.6,3.35,7.38,1.52.89,4.24.63,6.41,2.18,5.69,4.07,6.43.9,6.79-1.55C17.124-4.974,13.264-7.624,13-8.464Z" transform="translate(135.088 147.305) rotate(180)" fill="#fd91a4"/>
        <path id="Vector-8" data-name="Vector" d="M16.48-3.652c-3.4-6.6-1.19-23.79-1.12-28.15S6.37-44.852,0-48.622l4.88-7.32s18.08,8,20.6,11.72c2.8,4.12,4.73,18.96,4.07,23.21S23.24,9.5,16.48-3.652Z" transform="translate(124.673 98.597) rotate(180)" fill="#ffe8af"/>
        <path id="Vector-9" data-name="Vector" d="M.071-72.05c-1.24-7.86,14.04-12.52,25.67-10.54s22.6,1.57,19.01,13.96c-7.29,25.13,5.65,40.12,2.52,48.78a20.322,20.322,0,0,1-5.34,8.18C31.551-2.76,13.981,1.54,6.2-.5c-6.43-1.68-7.42-13.34-4.9-31.7C3.331-46.83,2.881-54.27.071-72.05Z" transform="translate(109.814 97.469) rotate(180)" fill="#fbd26e"/>
        <path id="Vector-10" data-name="Vector" d="M6.208-.067c-.86.73-7.45-4.73-6-6.57s5.05.69,6.19,2.09A3.353,3.353,0,0,1,6.208-.067Z" transform="translate(119.401 120.192) rotate(180)" fill="#fb5954"/>
        <path id="Vector-11" data-name="Vector" d="M12.857-6.43c-.54,2.56-3.29,2.6-5.34,6.17-.52.91-1.68-.66.12-3.32.77-1.14-.52-2.42-2.53.22S2.677,1.96.567-2.17C-.773-4.79.327-7.77,3.2-9.84c1.43-1.03,4.16-1.04,6.16-2.79,5.27-4.6,6.31-1.52,6.9.89C16.637-10.29,13.037-7.28,12.857-6.43Z" transform="translate(128.17 112.869) rotate(180)" fill="#fd91a4"/>
        <path id="Vector-12" data-name="Vector" d="M55.85-4.065c-4.54,7.36-12.43,3.62-17.2-2.48-4.87-6.23-10.8-14.66-16-11.83S10.19-10.675,6-7.815c.86-2.25-1.75-6.26-6-6.57l20.12-16.29s4.63-5.14,14.71,1.9S62.13-14.265,55.85-4.065Z" transform="translate(119.193 112.444) rotate(180)" fill="#ffe8af"/>
        <path id="Vector-13" data-name="Vector" d="M4.25-3.662c-2.37-3.16-4.23-7.17-2.51-9.71C1.87-16.042,0-41.5,0-41.5s4.15,26.25,5.42,26.16,14.39,3.38,12.87,10.58C17.02,1.248,8.14,1.518,4.25-3.662Z" transform="translate(98.953 99.117) rotate(180)" fill="#e5eaee"/>
        <path id="Vector-14" data-name="Vector" d="M12.89-1.209c-.03-3.09.08-6.35,0-8.55s-1.18-4.23-5.76-6.77-8.47-.08-6.69,2.2a10.646,10.646,0,0,1,2.54,7.11C2.99-4.419,12.94,2.861,12.89-1.209Z" transform="translate(95.193 92.21) rotate(180)" fill="#fd91a4"/>
        <path id="Vector-15" data-name="Vector" d="M13.46-18.544C5.79-21.694,0-19.324,0-14.5v13.14s13.07,3.07,19.3,0c4.78-2.36,4.15-11.11-1.14-10.83C18.16-12.194,17.52-16.874,13.46-18.544Z" transform="translate(99.913 81.985) rotate(180)" fill="#ffa6b9"/>
        <path id="Vector-16" data-name="Vector" d="M17.085-24.219c.13,2.62,1.08,7.19-3.46,7.06S.235-17.1.115-13.029-.515-6.3,2.4-4.779s8.28,8.17,19.33,2.58c9.44-4.77,9.13-29.67-1.76-25.9a14.142,14.142,0,0,1,.55,1.92s4.98,3.88,1.78,6.86c-1.79,1.66-3.68-1.68-3.68-4.91h-1.54Z" transform="translate(102.268 68) rotate(180)" fill="#7f3d12"/>
      </g>
    </g>
    <text id="Find_the_latest_news_from_around_the_world" data-name="Find the latest news from around the world" transform="translate(157 102)" fill="#373737" font-size="18" font-family="Nunito-ExtraBold, Nunito" font-weight="800"><tspan x="0" y="18">Find the latest news </tspan><tspan x="0" y="42">from around the world</tspan></text>
    <g id="EMAIL" transform="translate(0 -39)">
      <text id="Email-2" data-name="Email" transform="translate(30 367)" fill="#373737" font-size="14" font-family="Nunito-Bold, Nunito" font-weight="700"><tspan x="0" y="14">Email</tspan></text>
      <g id="FIELD_-_EMAIL" data-name="FIELD - EMAIL">
        <g id="Rectangle_3" data-name="Rectangle 3" transform="translate(30 396)" fill="none" stroke="#e3e3e3" stroke-width="1">
          <rect width="315" height="70" rx="8" stroke="none"/>
          <rect x="0.5" y="0.5" width="314" height="69" rx="7.5" fill="none"/>
        </g>
        <g id="ICON_-_USER" data-name="ICON - USER" transform="translate(2.7 3)">
          <g id="Group_33" data-name="Group 33" transform="translate(46 416)">
            <g id="Vector-17" data-name="Vector" transform="translate(0 11.132)" fill="#bdbdbd">
              <path d="M 6.891810417175293 12.74287509918213 C 4.362450122833252 12.74287509918213 2.4343101978302 12.51126480102539 1.24560022354126 11.380934715271 C 0.5020301938056946 10.67361450195312 0.1250001937150955 9.673125267028809 0.1250001937150955 8.407275199890137 C 0.1250001937150955 3.840414762496948 4.913790225982666 0.1250048279762268 10.80000019073486 0.1250048279762268 C 16.68621063232422 0.1250048279762268 21.47500038146973 3.840414762496948 21.47500038146973 8.407275199890137 C 21.47500038146973 9.673125267028809 21.09797096252441 10.67361450195312 20.35439109802246 11.38094520568848 C 19.16448974609375 12.50949478149414 17.22966957092285 12.74076461791992 14.69067001342773 12.74076461791992 C 14.12057018280029 12.74076461791992 13.53787994384766 12.73020458221436 12.92098045349121 12.71901512145996 L 12.90130043029785 12.71865463256836 C 12.22899055480957 12.70657444000244 11.52202033996582 12.70045471191406 10.80000019073486 12.70045471191406 C 10.07798004150391 12.70045471191406 9.371009826660156 12.70657444000244 8.69871997833252 12.71865463256836 C 7.994670391082764 12.73518466949463 7.420730113983154 12.74287509918213 6.891810417175293 12.74287509918213 Z M 10.80000019073486 2.056814908981323 C 6.01602029800415 2.056814908981323 2.123960256576538 4.907794952392578 2.123960256576538 8.412124633789062 C 2.123960256576538 9.498074531555176 2.51494026184082 9.877135276794434 2.643420219421387 10.00170516967773 L 2.643790245056152 10.00205516815186 L 2.647460222244263 10.00560474395752 C 3.392530202865601 10.71625518798828 5.127560138702393 10.8142147064209 6.89153003692627 10.8142147064209 C 7.453610420227051 10.8142147064209 8.027130126953125 10.80346488952637 8.634320259094238 10.79209518432617 L 8.658329963684082 10.79164505004883 C 9.343910217285156 10.77959442138672 10.06453037261963 10.77348518371582 10.80000019073486 10.77348518371582 C 11.5354700088501 10.77348518371582 12.25609016418457 10.77959442138672 12.94181060791016 10.79164505004883 C 13.51848030090332 10.80244445800781 14.1149206161499 10.81361484527588 14.68262004852295 10.81361484527588 C 16.45780944824219 10.8136043548584 18.20372009277344 10.715744972229 18.9522705078125 10.00585460662842 C 19.08382987976074 9.878254890441895 19.47603988647461 9.497824668884277 19.47603988647461 8.407275199890137 C 19.47603988647461 4.905614852905273 15.58398056030273 2.056814908981323 10.80000019073486 2.056814908981323 Z" stroke="none"/>
              <path d="M 6.891810417175293 12.61787509918213 C 7.419730186462402 12.61787509918213 7.992740154266357 12.61019515991211 8.696479797363281 12.593674659729 C 9.369510650634766 12.58158493041992 10.07723045349121 12.57545471191406 10.80000019073486 12.57545471191406 C 11.52276992797852 12.57545471191406 12.23048973083496 12.58158493041992 12.90356063842773 12.593674659729 L 12.92416000366211 12.59404468536377 C 13.54016017913818 12.60521507263184 14.12199020385742 12.61576461791992 14.69067001342773 12.61576461791992 C 17.19975090026855 12.61576461791992 19.10849952697754 12.39033508300781 20.26823043823242 11.29037475585938 C 20.98604011535645 10.60756492614746 21.35000038146973 9.637544631958008 21.35000038146973 8.407275199890137 C 21.35000038146973 3.909344911575317 16.61729049682617 0.2500048279762268 10.80000019073486 0.2500048279762268 C 4.982710361480713 0.2500048279762268 0.2500001788139343 3.909344911575317 0.2500001788139343 8.407275199890137 C 0.2500001788139343 9.637544631958008 0.6139602065086365 10.60756492614746 1.331730246543884 11.29034519195557 C 2.490410089492798 12.39211463928223 4.392430305480957 12.61787509918213 6.891810417175293 12.61787509918213 M 10.80000019073486 1.931814789772034 C 15.65291023254395 1.931814789772034 19.60103988647461 4.836694717407227 19.60103988647461 8.407275199890137 C 19.60103988647461 9.550724983215332 19.18025970458984 9.958874702453613 19.0419807434082 10.09299468994141 L 19.03829002380371 10.09655475616455 C 18.25795936584473 10.83658504486084 16.48370933532715 10.9386043548584 14.68262004852295 10.93861484527588 C 14.11402034759521 10.93861484527588 13.5168399810791 10.92743492126465 12.93962001800537 10.91662502288818 C 12.25462055206299 10.90458488464355 11.53474998474121 10.89848518371582 10.80000019073486 10.89848518371582 C 10.06525039672852 10.89848518371582 9.345379829406738 10.90458488464355 8.660670280456543 10.91662502288818 L 8.63523006439209 10.91709518432617 C 8.027939796447754 10.92847442626953 7.454329967498779 10.9392147064209 6.89153003692627 10.9392147064209 C 5.101580142974854 10.9392147064209 3.33810019493103 10.83707523345947 2.561180114746094 10.09606456756592 L 2.556410074234009 10.09144496917725 C 2.418540239334106 9.957775115966797 1.998960137367249 9.550984382629395 1.998960137367249 8.412124633789062 C 1.998960137367249 4.838864803314209 5.947090148925781 1.931814789772034 10.80000019073486 1.931814789772034 M 6.891810417175293 12.86787509918213 C 4.467930316925049 12.86787509918213 2.418880224227905 12.6690845489502 1.159460186958313 11.47151470184326 C 0.3898201882839203 10.73939514160156 1.907348661234209e-07 9.7066650390625 1.907348661234209e-07 8.407275199890137 C 1.907348661234209e-07 3.772124767303467 4.84276008605957 4.825286850973498e-06 10.80000019073486 4.825286850973498e-06 C 16.75724029541016 4.825286850973498e-06 21.60000038146973 3.772124767303467 21.60000038146973 8.407275199890137 C 21.60000038146973 9.7066650390625 21.21018028259277 10.73939514160156 20.4405403137207 11.47151470184326 C 18.87626075744629 12.95515441894531 16.1075439453125 12.90181636810303 12.89902973175049 12.84363460540771 C 11.54965114593506 12.8193941116333 10.05034923553467 12.8193941116333 8.700970649719238 12.84363460540771 C 8.081259727478027 12.85818481445312 7.476540088653564 12.86787509918213 6.891810417175293 12.86787509918213 Z M 10.80000019073486 2.181814908981323 C 6.082180023193359 2.181814908981323 2.248960256576538 4.974545001983643 2.248960256576538 8.412124633789062 C 2.248960256576538 9.454545021057129 2.613790273666382 9.798785209655762 2.73373007774353 9.915154457092285 C 3.623320341110229 10.76363468170166 6.06718635559082 10.7151517868042 8.655990600585938 10.66666507720947 C 10.03534889221191 10.64242458343506 11.56465148925781 10.64242458343506 12.94400978088379 10.66666507720947 C 15.53281688690186 10.71515846252441 17.97668075561523 10.75878429412842 18.86626052856445 9.915154457092285 C 18.98620986938477 9.798785209655762 19.35103988647461 9.449694633483887 19.35103988647461 8.407275199890137 C 19.35103988647461 4.974545001983643 15.51282024383545 2.181814908981323 10.80000019073486 2.181814908981323 Z" stroke="none" fill="#fff"/>
            </g>
            <g id="Vector-18" data-name="Vector" transform="translate(5.682)" fill="#bdbdbd">
              <path d="M 5.117631435394287 10.7113618850708 C 3.81550145149231 10.7113618850708 2.557141542434692 10.04671192169189 1.574371457099915 8.839861869812012 C 0.6668214201927185 7.725371837615967 0.1250014305114746 6.276772022247314 0.1250014305114746 4.964851856231689 C 0.1250014305114746 2.296151876449585 2.364681482315063 0.1250018924474716 5.117631435394287 0.1250018924474716 C 7.87058162689209 0.1250018924474716 10.11026096343994 2.296151876449585 10.11026096343994 4.964851856231689 C 10.11026096343994 7.622282028198242 7.929371356964111 10.7113618850708 5.117631435394287 10.7113618850708 Z M 5.117631435394287 2.056821823120117 C 3.466911554336548 2.056821823120117 2.123961448669434 3.361361980438232 2.123961448669434 4.964851856231689 C 2.123961448669434 5.777462005615234 2.46191143989563 6.720531940460205 3.027981519699097 7.487551689147949 C 3.633931398391724 8.308631896972656 4.395581245422363 8.779541969299316 5.117631435394287 8.779541969299316 C 5.839681625366211 8.779541969299316 6.601331233978271 8.308631896972656 7.207291603088379 7.487551689147949 C 7.773351669311523 6.720531940460205 8.111301422119141 5.777462005615234 8.111301422119141 4.964851856231689 C 8.111301422119141 3.361361980438232 6.768351554870605 2.056821823120117 5.117631435394287 2.056821823120117 Z" stroke="none"/>
              <path d="M 5.117631435394287 10.5863618850708 C 6.381461620330811 10.5863618850708 7.605391502380371 9.938072204589844 8.563971519470215 8.760931968688965 C 9.453941345214844 7.668031692504883 9.985260963439941 6.248941898345947 9.985260963439941 4.964851856231689 C 9.985260963439941 2.365072011947632 7.801651477813721 0.2500019073486328 5.117631435394287 0.2500019073486328 C 2.433611392974854 0.2500019073486328 0.2500014305114746 2.365072011947632 0.2500014305114746 4.964851856231689 C 0.2500014305114746 6.248931884765625 0.7813314199447632 7.668031692504883 1.671301484107971 8.760931968688965 C 2.629881381988525 9.938072204589844 3.853811502456665 10.5863618850708 5.117631435394287 10.5863618850708 M 5.117631435394287 1.931821942329407 C 6.837271213531494 1.931821942329407 8.236301422119141 3.292431831359863 8.236301422119141 4.964851856231689 C 8.236301422119141 6.701441764831543 6.767941474914551 8.904541969299316 5.117631435394287 8.904541969299316 C 3.467321395874023 8.904541969299316 1.998961448669434 6.701441764831543 1.998961448669434 4.964851856231689 C 1.998961448669434 3.292431831359863 3.397991418838501 1.931821942329407 5.117631435394287 1.931821942329407 M 5.117631435394287 10.8363618850708 C 2.233971357345581 10.8363618850708 1.435394324289518e-06 7.680001735687256 1.435394324289518e-06 4.964851856231689 C 1.435394324289518e-06 2.225451946258545 2.298941373825073 1.896209710139374e-06 5.117631435394287 1.896209710139374e-06 C 7.936331272125244 1.896209710139374e-06 10.23526096343994 2.225451946258545 10.23526096343994 4.964851856231689 C 10.23526096343994 7.680001735687256 8.001301765441895 10.8363618850708 5.117631435394287 10.8363618850708 Z M 5.117631435394287 2.181821823120117 C 3.538361549377441 2.181821823120117 2.248961448669434 3.427881956100464 2.248961448669434 4.964851856231689 C 2.248961448669434 6.574542045593262 3.638321399688721 8.654541969299316 5.117631435394287 8.654541969299316 C 6.596951484680176 8.654541969299316 7.986301422119141 6.574542045593262 7.986301422119141 4.964851856231689 C 7.986301422119141 3.427881956100464 6.696901321411133 2.181821823120117 5.117631435394287 2.181821823120117 Z" stroke="none" fill="#fff"/>
            </g>
          </g>
        </g>
        <text id="Type_email_here" data-name="Type email here" transform="translate(86 419)" fill="#bdbdbd" font-size="18" font-family="Nunito-Bold, Nunito" font-weight="700"><tspan x="0" y="18">Type email here</tspan></text>
      </g>
    </g>
    <g id="PASSWORD" transform="translate(0 -39)">
      <text id="Password-2" data-name="Password" transform="translate(30 496)" fill="#373737" font-size="14" font-family="Nunito-Bold, Nunito" font-weight="700"><tspan x="0" y="14">Password</tspan></text>
      <g id="FIELD_-_PASSWORD" data-name="FIELD - PASSWORD">
        <g id="Rectangle_4" data-name="Rectangle 4" transform="translate(30 525)" fill="none" stroke="#e3e3e3" stroke-width="1">
          <rect width="315" height="70" rx="8" stroke="none"/>
          <rect x="0.5" y="0.5" width="314" height="69" rx="7.5" fill="none"/>
        </g>
        <g id="ICON_-_PASSWORD" data-name="ICON - PASSWORD" transform="translate(2 3)">
          <g id="Vector-19" data-name="Vector" transform="translate(50 545)" fill="#bdbdbd">
            <path d="M 10.7564697265625 23.875 L 5.243529796600342 23.875 C 2.421159982681274 23.875 0.125 21.6451301574707 0.125 18.90423965454102 L 0.125 11.59757995605469 C 0.125 11.06497955322266 0.5724899768829346 10.63166999816895 1.12253999710083 10.63166999816895 L 3.1181800365448 10.63166999816895 L 3.2431800365448 10.63166999816895 L 3.2431800365448 10.50666999816895 L 3.2431800365448 4.746669769287109 C 3.2431800365448 2.198270082473755 5.378200054168701 0.125 8.002490043640137 0.125 C 10.62679004669189 0.125 12.76181030273438 2.198270082473755 12.76181030273438 4.746669769287109 L 12.76181030273438 10.50666999816895 L 12.76181030273438 10.63166999816895 L 12.88681030273438 10.63166999816895 L 14.87745952606201 10.63166999816895 C 15.42751026153564 10.63166999816895 15.875 11.06497955322266 15.875 11.59757995605469 L 15.875 18.90423965454102 C 15.875 21.6451301574707 13.5788402557373 23.875 10.7564697265625 23.875 Z M 2.120090007781982 12.56348991394043 L 2.120090007781982 12.68848991394043 L 2.120090007781982 18.90423965454102 C 2.120090007781982 20.57991981506348 3.521260023117065 21.94318008422852 5.243529796600342 21.94318008422852 L 10.7564697265625 21.94318008422852 C 12.47873973846436 21.94318008422852 13.87991046905518 20.57991981506348 13.87991046905518 18.90423965454102 L 13.87991046905518 12.68848991394043 L 13.87991046905518 12.56348991394043 L 13.75491046905518 12.56348991394043 L 2.245090007781982 12.56348991394043 L 2.120090007781982 12.56348991394043 Z M 7.997509956359863 2.056819915771484 C 6.473309993743896 2.056819915771484 5.233280181884766 3.263479948043823 5.233280181884766 4.746669769287109 L 5.233280181884766 10.50666999816895 L 5.233280181884766 10.63166999816895 L 5.358280181884766 10.63166999816895 L 10.6367301940918 10.63166999816895 L 10.7617301940918 10.63166999816895 L 10.7617301940918 10.50666999816895 L 10.7617301940918 4.746669769287109 C 10.7617301940918 3.263479948043823 9.521710395812988 2.056819915771484 7.997509956359863 2.056819915771484 Z" stroke="none"/>
            <path d="M 8.002490043640137 0.25 C 5.44711971282959 0.25 3.368180274963379 2.267200469970703 3.368180274963379 4.746669769287109 L 3.368180274963379 10.75666999816895 L 1.122540473937988 10.75666999816895 C 0.6414203643798828 10.75666999816895 0.25 11.1338996887207 0.25 11.59757995605469 L 0.25 18.90423965454102 C 0.25 21.57620048522949 2.490090370178223 23.75 5.2435302734375 23.75 L 10.7564697265625 23.75 C 13.50991058349609 23.75 15.75 21.57620048522949 15.75 18.90423965454102 L 15.75 11.59757995605469 C 15.75 11.1338996887207 15.35857963562012 10.75666999816895 14.87746047973633 10.75666999816895 L 12.63681030273438 10.75666999816895 L 12.63681030273438 4.746669769287109 C 12.63681030273438 2.267200469970703 10.55785942077637 0.25 8.002490043640137 0.25 M 10.8867301940918 10.75666999816895 L 5.108280181884766 10.75666999816895 L 5.108280181884766 4.746669769287109 C 5.108280181884766 3.194559097290039 6.404379844665527 1.931819915771484 7.997509956359863 1.931819915771484 C 9.590629577636719 1.931819915771484 10.8867301940918 3.194559097290039 10.8867301940918 4.746669769287109 L 10.8867301940918 10.75666999816895 M 10.7564697265625 22.06818008422852 L 5.2435302734375 22.06818008422852 C 3.452329635620117 22.06818008422852 1.995089530944824 20.64883995056152 1.995089530944824 18.90423965454102 L 1.995089530944824 12.43848991394043 L 14.00490951538086 12.43848991394043 L 14.00490951538086 18.90423965454102 C 14.00490951538086 20.64883995056152 12.54767036437988 22.06818008422852 10.7564697265625 22.06818008422852 M 8.002490043640137 0 C 10.69659996032715 0 12.88681030273438 2.128480911254883 12.88681030273438 4.746669769287109 L 12.88681030273438 10.50666999816895 L 14.87746047973633 10.50666999816895 C 15.49610042572021 10.50666999816895 16 10.99635982513428 16 11.59757995605469 L 16 18.90423965454102 C 16 21.71636962890625 13.65013980865479 24 10.7564697265625 24 L 5.2435302734375 24 C 2.349860191345215 24 0 21.71636962890625 0 18.90423965454102 L 0 11.59757995605469 C 0 10.99635982513428 0.5038995742797852 10.50666999816895 1.122540473937988 10.50666999816895 L 3.118180274963379 10.50666999816895 L 3.118180274963379 4.746669769287109 C 3.118180274963379 2.128480911254883 5.308389663696289 0 8.002490043640137 0 Z M 10.6367301940918 10.50666999816895 L 10.6367301940918 4.746669769287109 C 10.6367301940918 3.330909729003906 9.454319953918457 2.181819915771484 7.997509956359863 2.181819915771484 C 6.540690422058105 2.181819915771484 5.358280181884766 3.330909729003906 5.358280181884766 4.746669769287109 L 5.358280181884766 10.50666999816895 L 10.6367301940918 10.50666999816895 Z M 10.7564697265625 21.81818008422852 C 12.40785980224609 21.81818008422852 13.75490951538086 20.50909042358398 13.75490951538086 18.90423965454102 L 13.75490951538086 12.68848991394043 L 2.245089530944824 12.68848991394043 L 2.245089530944824 18.90423965454102 C 2.245089530944824 20.50909042358398 3.592140197753906 21.81818008422852 5.2435302734375 21.81818008422852 L 10.7564697265625 21.81818008422852 Z" stroke="none" fill="#fff"/>
          </g>
          <g id="Vector-20" data-name="Vector" transform="translate(56.88 559.691)" fill="#bdbdbd">
            <path d="M 1.122544527053833 4.641060829162598 C 0.5724945068359375 4.641060829162598 0.1250045299530029 4.207750797271729 0.1250045299530029 3.675150632858276 L 0.1250045299530029 1.090910673141479 C 0.1250045299530029 0.5583106279373169 0.5724945068359375 0.1250006556510925 1.122544527053833 0.1250006556510925 C 1.672594547271729 0.1250006556510925 2.120084524154663 0.5583106279373169 2.120084524154663 1.090910673141479 L 2.120084524154663 3.675150632858276 C 2.120084524154663 4.207750797271729 1.672594547271729 4.641060829162598 1.122544527053833 4.641060829162598 Z" stroke="none"/>
            <path d="M 1.122544527053833 0.2500004768371582 C 0.6414245367050171 0.2500004768371582 0.2500045299530029 0.6272306442260742 0.2500045299530029 1.090910673141479 L 0.2500045299530029 3.675150632858276 C 0.2500045299530029 4.138830661773682 0.6414245367050171 4.516060829162598 1.122544527053833 4.516060829162598 C 1.603664517402649 4.516060829162598 1.995084524154663 4.138830661773682 1.995084524154663 3.675150632858276 L 1.995084524154663 1.090910673141479 C 1.995084524154663 0.6272306442260742 1.603664517402649 0.2500004768371582 1.122544527053833 0.2500004768371582 M 1.122544527053833 4.76837158203125e-07 C 1.741194486618042 4.76837158203125e-07 2.245084524154663 0.4897007942199707 2.245084524154663 1.090910673141479 L 2.245084524154663 3.675150632858276 C 2.245084524154663 4.276360511779785 1.741194486618042 4.766060829162598 1.122544527053833 4.766060829162598 C 0.503894567489624 4.766060829162598 4.529953002929688e-06 4.276360511779785 4.529953002929688e-06 3.675150632858276 L 4.529953002929688e-06 1.090910673141479 C 4.529953002929688e-06 0.4897007942199707 0.503894567489624 4.76837158203125e-07 1.122544527053833 4.76837158203125e-07 Z" stroke="none" fill="#fff"/>
          </g>
        </g>
        <text id="Type_password_here" data-name="Type password here" transform="translate(86 548)" fill="#bdbdbd" font-size="18" font-family="Nunito-Bold, Nunito" font-weight="700"><tspan x="0" y="18">Type password here</tspan></text>
      </g>
    </g>
  </g>
</svg>
