<svg xmlns="http://www.w3.org/2000/svg" width="20" height="18" viewBox="0 0 20 18">
  <path id="ICON_-_LIKE" data-name="ICON - LIKE" d="M2.659,18h12.2a2.665,2.665,0,0,0,2.413-1.6l2.483-5.55a2.822,2.822,0,0,0-.172-2.639,2.626,2.626,0,0,0-2.241-1.271h-3.1a13.215,13.215,0,0,0,.4-2.478A4.3,4.3,0,0,0,12.418.241,1.839,1.839,0,0,0,10.659.207,1.979,1.979,0,0,0,9.62,1.694L8.888,6.943H2.659A2.713,2.713,0,0,0,0,9.7v5.55A2.713,2.713,0,0,0,2.659,18ZM1.841,9.7a.835.835,0,0,1,.818-.847H9.69a.932.932,0,0,0,.912-.818l.847-6.066a.065.065,0,0,1,.037-.055.056.056,0,0,1,.053,0,2.4,2.4,0,0,1,1.268,2.423,12.239,12.239,0,0,1-.687,3.232.984.984,0,0,0,.11.873.912.912,0,0,0,.753.407h4.36a.815.815,0,0,1,.691.39.868.868,0,0,1,.053.813L15.6,15.6a.824.824,0,0,1-.74.491H7.731V10.057a.921.921,0,1,0-1.841,0v6.037H2.659a.835.835,0,0,1-.818-.847Z" fill="#373737"/>
</svg>
