<svg xmlns="http://www.w3.org/2000/svg" width="315" height="310" viewBox="0 0 315 310">
  <g id="ILLUSTRATION" transform="translate(-30 -30)">
    <rect id="Rectangle_3" data-name="Rectangle 3" width="315" height="310" rx="11" transform="translate(30 30)" fill="#ffda7e"/>
    <g id="Group">
      <path id="Vector" d="M186.473-107.446l-.381-136.025L0-136.041.381,0Z" transform="translate(274.989 70.114) rotate(180)" fill="#55dfff" opacity="0.7"/>
    </g>
    <g id="Group-2" data-name="Group">
      <g id="Group-3" data-name="Group">
        <path id="Vector-2" data-name="Vector" d="M17.762-10.245,17.731-24.3,0-14.051.032,0Z" transform="translate(266.551 166.363) rotate(180)" fill="#f2c557"/>
      </g>
      <g id="Group-4" data-name="Group">
        <path id="Vector-3" data-name="Vector" d="M35.7-20.6v-2.871L0-2.855.016,0Z" transform="translate(266.297 84.641) rotate(180)" fill="#fff"/>
      </g>
      <g id="Group-5" data-name="Group">
        <path id="Vector-4" data-name="Vector" d="M12.323-1.686V-2.764C6.058.852.952-2.067.936-9.251c-.016-7.2,5.059-15.986,11.324-19.6v-1.078C5.487-26.014-.016-16.5,0-8.712,0-.909,5.535,2.231,12.323-1.686Z" transform="translate(236.371 147.454) rotate(180)" fill="#fff"/>
      </g>
      <g id="Group-6" data-name="Group">
        <g id="Group-7" data-name="Group">
          <path id="Vector-5" data-name="Vector" d="M12.323-1.683V-2.761C6.074.854.952-2.064.936-9.248c-.016-7.2,5.059-15.986,11.308-19.586,6.264-3.616,11.355-.714,11.387,6.486l.936-.539c-.016-7.787-5.551-10.943-12.323-7.026S-.032-16.5,0-8.709C.016-.922,5.551,2.234,12.323-1.683Z" transform="translate(266.9 129.838) rotate(180)" fill="#fff"/>
        </g>
        <g id="Group-8" data-name="Group">
          <path id="Vector-6" data-name="Vector" d="M.016,0C7.042-4.06,12.767-13.956,12.735-22.029l-.476.27-.936.539-.476.27C10.864-14.051,5.995-5.63,0-2.173V-.555Z" transform="translate(254.594 130.981) rotate(180)" fill="#f2c557"/>
        </g>
        <g id="Group-9" data-name="Group">
          <path id="Vector-7" data-name="Vector" d="M23.2-13.4l-.016-2.855L0-2.855V0Z" transform="translate(266.377 114.377) rotate(180)" fill="#fff"/>
        </g>
        <g id="Group-10" data-name="Group">
          <path id="Vector-8" data-name="Vector" d="M15.843-9.135v-2.871L0-2.871V0Z" transform="translate(266.345 102.482) rotate(180)" fill="#fff"/>
        </g>
        <g id="Group-11" data-name="Group">
          <path id="Vector-9" data-name="Vector" d="M25.216-14.543,25.2-17.413,0-2.855.016,0Z" transform="translate(266.329 96.535) rotate(180)" fill="#fff"/>
        </g>
        <g id="Group-12" data-name="Group">
          <path id="Vector-10" data-name="Vector" d="M35.7-20.6l-.016-2.871L0-2.871.016,0Z" transform="translate(266.361 108.43) rotate(180)" fill="#fff"/>
        </g>
        <g id="Group-13" data-name="Group">
          <path id="Vector-11" data-name="Vector" d="M24.249-14l-.016-2.855L0-2.871.016,0Z" transform="translate(239.178 130.077) rotate(180)" fill="#fff"/>
        </g>
        <g id="Group-14" data-name="Group">
          <path id="Vector-12" data-name="Vector" d="M11.752-6.772V-9.642L0-2.871.016,0Z" transform="translate(226.665 131.346) rotate(180)" fill="#fff"/>
        </g>
        <g id="Group-15" data-name="Group">
          <path id="Vector-13" data-name="Vector" d="M31.592-18.238v-2.871L0-2.871V0Z" transform="translate(246.489 113.933) rotate(180)" fill="#fff"/>
        </g>
        <g id="Group-16" data-name="Group">
          <path id="Vector-14" data-name="Vector" d="M22.235-12.846V-15.7L0-2.871.016,0Z" transform="translate(237.117 113.393) rotate(180)" fill="#fff"/>
        </g>
        <g id="Group-17" data-name="Group">
          <path id="Vector-15" data-name="Vector" d="M38.839-22.425V-25.3L0-2.871V0Z" transform="translate(253.705 97.851) rotate(180)" fill="#fff"/>
        </g>
      </g>
      <g id="Group-18" data-name="Group">
        <path id="Vector-16" data-name="Vector" d="M17.762-10.229l-.048-14.051L0-14.051.032,0Z" transform="translate(220.829 192.769) rotate(180)" fill="#f2c557"/>
      </g>
      <g id="Group-19" data-name="Group">
        <path id="Vector-17" data-name="Vector" d="M12.8,0C19.84-4.06,25.549-13.94,25.518-22.029c-.016-8.088-5.757-11.355-12.8-7.3S-.032-15.383,0-7.3l.476-.27L1.412-8.1l.476-.27c-.016-6.9,4.837-15.32,10.832-18.777s10.9-.666,10.911,6.217c.016,6.9-4.837,15.32-10.848,18.777V0Z" transform="translate(206.334 166.221) rotate(180)" fill="#f2c557"/>
      </g>
      <g id="Group-20" data-name="Group">
        <path id="Vector-18" data-name="Vector" d="M11.736-6.772V-9.642L0-2.871V0Z" transform="translate(168.922 164.682) rotate(180)" fill="#fff"/>
      </g>
      <g id="Group-21" data-name="Group">
        <path id="Vector-19" data-name="Vector" d="M24.233-13.988v-2.855L0-2.871V0Z" transform="translate(181.435 163.414) rotate(180)" fill="#fff"/>
      </g>
      <g id="Group-22" data-name="Group">
        <g id="Group-23" data-name="Group">
          <path id="Vector-20" data-name="Vector" d="M12.323-1.683V-2.761C6.074.854.952-2.064.936-9.248L0-8.709C.016-.922,5.535,2.234,12.323-1.683Z" transform="translate(205.858 165.077) rotate(180)" fill="#fff"/>
        </g>
        <g id="Group-24" data-name="Group">
          <path id="Vector-21" data-name="Vector" d="M23.2-13.385l-.016-2.871L0-2.855V0Z" transform="translate(208.633 147.713) rotate(180)" fill="#fff"/>
        </g>
        <g id="Group-25" data-name="Group">
          <path id="Vector-22" data-name="Vector" d="M15.843-9.151v-2.871L0-2.871V0Z" transform="translate(208.602 135.803) rotate(180)" fill="#fff"/>
        </g>
        <g id="Group-26" data-name="Group">
          <path id="Vector-23" data-name="Vector" d="M8.6-4.948,8.58-7.819,0-2.855V0Z" transform="translate(208.57 123.924) rotate(180)" fill="#fff"/>
        </g>
        <g id="Group-27" data-name="Group">
          <path id="Vector-24" data-name="Vector" d="M25.2-14.543v-2.871L0-2.855V0Z" transform="translate(208.586 129.871) rotate(180)" fill="#fff"/>
        </g>
        <g id="Group-28" data-name="Group">
          <path id="Vector-25" data-name="Vector" d="M35.7-20.6v-2.871L0-2.855.016,0Z" transform="translate(208.633 141.766) rotate(180)" fill="#fff"/>
        </g>
        <g id="Group-29" data-name="Group">
          <path id="Vector-26" data-name="Vector" d="M35.683-20.617v-2.855L0-2.871V0Z" transform="translate(208.553 117.961) rotate(180)" fill="#fff"/>
        </g>
        <g id="Group-30" data-name="Group">
          <path id="Vector-27" data-name="Vector" d="M31.592-18.238v-2.871L0-2.871.016,0Z" transform="translate(188.762 147.269) rotate(180)" fill="#fff"/>
        </g>
        <g id="Group-31" data-name="Group">
          <path id="Vector-28" data-name="Vector" d="M22.219-12.83v-2.855L0-2.871V0Z" transform="translate(179.373 146.73) rotate(180)" fill="#fff"/>
        </g>
        <g id="Group-32" data-name="Group">
          <path id="Vector-29" data-name="Vector" d="M11.736-6.772V-9.642L0-2.855.016,0Z" transform="translate(168.858 140.893) rotate(180)" fill="#fff"/>
        </g>
      </g>
      <g id="Group-33" data-name="Group">
        <path id="Vector-30" data-name="Vector" d="M17.778-10.245l-.048-14.035L0-14.051.048,0Z" transform="translate(175.123 219.159) rotate(180)" fill="#f2c557"/>
      </g>
      <g id="Group-34" data-name="Group">
        <path id="Vector-31" data-name="Vector" d="M12.8-1.76c7.026-4.06,12.735-13.956,12.719-22.029-.016-8.088-5.773-11.355-12.8-7.3A26.518,26.518,0,0,0,3.109-20.49,25.184,25.184,0,0,0,0-9.056C.016-3.489,2.728-.016,7.073,0L7.3-.619l.412-1.205.206-.6C4.2-2.442,1.9-5.376,1.887-10.134a21.45,21.45,0,0,1,2.649-9.753,22.65,22.65,0,0,1,8.2-9.04c5.995-3.457,10.879-.666,10.911,6.233.016,6.9-4.837,15.3-10.832,18.777V-1.76Z" transform="translate(175.821 182.08) rotate(180)" fill="#f2c557"/>
      </g>
      <g id="Group-35" data-name="Group">
        <path id="Vector-32" data-name="Vector" d="M5.5-1.681V-2.76A10.278,10.278,0,0,1,.412-1.205L0,0A11.2,11.2,0,0,0,5.5-1.681Z" transform="translate(168.525 182.698) rotate(180)" fill="#fff"/>
      </g>
      <g id="Group-36" data-name="Group">
        <path id="Vector-33" data-name="Vector" d="M.1,0C7.121-4.06,12.83-13.94,12.8-22.029,12.783-30.117,7.042-33.384,0-29.34v2.157c5.995-3.457,10.9-.666,10.911,6.217.016,6.9-4.853,15.32-10.832,18.777V0Z" transform="translate(224.143 148.601) rotate(180)" fill="#f2c557"/>
      </g>
      <g id="Group-37" data-name="Group">
        <path id="Vector-34" data-name="Vector" d="M4.187-2.411l-.016-8.168L0-8.168.016,0Z" transform="translate(135.919 219.761) rotate(180)" fill="#f2c557"/>
      </g>
      <g id="Group-38" data-name="Group">
        <path id="Vector-35" data-name="Vector" d="M20.665-.27c5.138-2.966,5.059-31.8,10.2-34.763C36-38.015,36.064-15.114,41.218-18.08S46.341-29.34,51.5-32.306l-.063-20.728L0-23.345.063-2.617C5.2-5.583,5.17-13.877,10.324-16.843,15.463-19.809,15.526,2.7,20.665-.27Z" transform="translate(151.144 244.628) rotate(180)" fill="#fff"/>
      </g>
      <g id="Group-39" data-name="Group">
        <path id="Vector-36" data-name="Vector" d="M4.2-2.411,4.171-15.352,0-12.957.048,0Z" transform="translate(127.799 219.666) rotate(180)" fill="#f2c557"/>
      </g>
      <g id="Group-40" data-name="Group">
        <path id="Vector-37" data-name="Vector" d="M4.2-2.395,4.155-20.141,0-17.747.048,0Z" transform="translate(119.663 219.571) rotate(180)" fill="#f2c557"/>
      </g>
      <g id="Group-41" data-name="Group">
        <path id="Vector-38" data-name="Vector" d="M4.234-2.411l-.063-22.52L0-22.52.063,0Z" transform="translate(111.543 219.476) rotate(180)" fill="#f2c557"/>
      </g>
      <g id="Group-42" data-name="Group">
        <path id="Vector-39" data-name="Vector" d="M4.25-2.411,4.171-29.72,0-27.31.079,0Z" transform="translate(103.423 219.381) rotate(180)" fill="#f2c557"/>
      </g>
      <g id="Group-43" data-name="Group">
        <path id="Vector-40" data-name="Vector" d="M11.752-6.772V-9.642L0-2.871.016,0Z" transform="translate(226.602 107.557) rotate(180)" fill="#fff"/>
      </g>
      <g id="Group-44" data-name="Group">
        <path id="Vector-41" data-name="Vector" d="M8.612-4.964,8.6-7.819,0-2.855.016,0Z" transform="translate(266.313 90.588) rotate(180)" fill="#fff"/>
      </g>
      <g id="Group-45" data-name="Group">
        <path id="Vector-42" data-name="Vector" d="M38.839-22.425V-25.28L0-2.871.016,0Z" transform="translate(195.978 131.188) rotate(180)" fill="#fff"/>
      </g>
      <g id="Group-46" data-name="Group">
        <g id="Group-47" data-name="Group">
          <path id="Vector-43" data-name="Vector" d="M23.2-13.385l-.016-2.855L0-2.855V0Z" transform="translate(150.905 181.049) rotate(180)" fill="#fff"/>
        </g>
        <g id="Group-48" data-name="Group">
          <path id="Vector-44" data-name="Vector" d="M15.843-9.151l-.016-2.855L0-2.871.016,0Z" transform="translate(150.874 169.139) rotate(180)" fill="#fff"/>
        </g>
        <g id="Group-49" data-name="Group">
          <path id="Vector-45" data-name="Vector" d="M8.6-4.948V-7.8L0-2.855.016,0Z" transform="translate(150.842 157.26) rotate(180)" fill="#fff"/>
        </g>
        <g id="Group-50" data-name="Group">
          <path id="Vector-46" data-name="Vector" d="M25.216-14.543,25.2-17.4,0-2.855.016,0Z" transform="translate(150.858 163.207) rotate(180)" fill="#fff"/>
        </g>
        <g id="Group-51" data-name="Group">
          <path id="Vector-47" data-name="Vector" d="M35.7-20.617l-.016-2.871L0-2.871.016,0Z" transform="translate(150.89 175.086) rotate(180)" fill="#fff"/>
        </g>
        <g id="Group-52" data-name="Group">
          <path id="Vector-48" data-name="Vector" d="M24.249-13.988l-.016-2.855L0-2.855.016,0Z" transform="translate(123.707 196.75) rotate(180)" fill="#fff"/>
        </g>
        <g id="Group-53" data-name="Group">
          <path id="Vector-49" data-name="Vector" d="M35.7-20.6l-.016-2.871L0-2.871.016,0Z" transform="translate(150.825 151.297) rotate(180)" fill="#fff"/>
        </g>
        <g id="Group-54" data-name="Group">
          <path id="Vector-50" data-name="Vector" d="M31.607-18.238l-.016-2.855L0-2.871.016,0Z" transform="translate(131.034 180.605) rotate(180)" fill="#fff"/>
        </g>
        <g id="Group-55" data-name="Group">
          <path id="Vector-51" data-name="Vector" d="M22.235-12.83l-.016-2.855L0-2.855V0Z" transform="translate(121.645 180.066) rotate(180)" fill="#fff"/>
        </g>
        <g id="Group-56" data-name="Group">
          <path id="Vector-52" data-name="Vector" d="M38.839-22.425l-.016-2.855L0-2.855V0Z" transform="translate(138.234 164.524) rotate(180)" fill="#fff"/>
        </g>
      </g>
      <g id="Group-57" data-name="Group">
        <path id="Vector-53" data-name="Vector" d="M11.752-6.788V-9.658L0-2.871.016,0Z" transform="translate(111.13 174.214) rotate(180)" fill="#fff"/>
      </g>
      <g id="Group-58" data-name="Group">
        <path id="Vector-54" data-name="Vector" d="M11.736-6.772V-9.642L0-2.855V0Z" transform="translate(111.194 198.018) rotate(180)" fill="#fff"/>
      </g>
      <g id="Group-59" data-name="Group">
        <path id="Vector-55" data-name="Vector" d="M17.778-10.229l-.048-14.051L0-14.051.048,0Z" transform="translate(243.698 179.574) rotate(180)" fill="#f2c557"/>
      </g>
      <g id="Group-60" data-name="Group">
        <path id="Vector-56" data-name="Vector" d="M17.778-10.229l-.048-14.051L0-14.051.048,0Z" transform="translate(197.976 205.964) rotate(180)" fill="#f2c557"/>
      </g>
      <g id="Group-61" data-name="Group">
        <path id="Vector-57" data-name="Vector" d="M17.762-10.245,17.731-24.3,0-14.051.048,0Z" transform="translate(266.615 187.25) rotate(180)" fill="#f2c557"/>
      </g>
      <g id="Group-62" data-name="Group">
        <path id="Vector-58" data-name="Vector" d="M17.762-10.229l-.032-14.051L0-14.051.032,0Z" transform="translate(243.746 200.461) rotate(180)" fill="#f2c557"/>
      </g>
      <g id="Group-63" data-name="Group">
        <path id="Vector-59" data-name="Vector" d="M17.762-10.229l-.032-14.051L0-14.051.032,0Z" transform="translate(220.893 213.656) rotate(180)" fill="#f2c557"/>
      </g>
      <g id="Group-64" data-name="Group">
        <path id="Vector-60" data-name="Vector" d="M17.778-10.245l-.048-14.035L0-14.051.048,0Z" transform="translate(198.039 226.851) rotate(180)" fill="#f2c557"/>
      </g>
      <g id="Group-65" data-name="Group">
        <path id="Vector-61" data-name="Vector" d="M17.762-10.229l-.032-14.051L0-14.051.032,0Z" transform="translate(175.17 240.045) rotate(180)" fill="#f2c557"/>
      </g>
    </g>
    <g id="Group-66" data-name="Group">
      <path id="Vector-62" data-name="Vector" d="M184.237-105.226l-4.139,2.395-21.648,12.5-2.871,1.649-9.563,5.519-.888.507-15.05,8.691-3.188,1.84-9.579,5.519-3.79,2.189-28.214,16.3-6.28,3.632-9.563,5.519L59.9-33.447l-3.663,2.109L43.9-24.217l-3.124,1.808L34.875-19l-13.4,7.739L12.1-5.852,7.406-3.14,2.553-.333c-.079.048-.143.079-.206.111s-.111.048-.174.079c-.016,0-.016,0-.032.016H2.125c-.032.016-.079.032-.111.048a.463.463,0,0,1-.143.032,1.011,1.011,0,0,0-.111.032H1.729A.489.489,0,0,1,1.586,0H1.364c-.032,0-.063-.016-.1-.016a1.73,1.73,0,0,1-.174-.1l-.523-.3A.91.91,0,0,1,.222-.793.8.8,0,0,1,.143-1L.1-1.189a.8.8,0,0,1-.032-.19c0-.063-.016-.127-.016-.206v-9.975A3.843,3.843,0,0,1,0-12.307v-1.269l9.547-5.5L13.227-21.2q9.183-5.3,18.381-10.61l6.6-3.806,9.563-5.519,9.563-5.519,9.563-5.519L76.473-57.7,95.615-68.75l9.579-5.519,9.563-5.519,9.563-5.519,9.563-5.519,9.563-5.519,9.563-5.519,9.563-5.519,9.547-5.519,9.547-5.519,9.547-5.5a14.388,14.388,0,0,0-4.345,5.059v4.2q.523.309,1.094.619l.333.19,1.237.714.238.143c.079.048.143.079.222.127.222.127.46.27.682.4l.1.048c.206.127.412.238.6.349.016.016.048.016.063.032a.319.319,0,0,0,.127.063.69.69,0,0,1,.111.063.643.643,0,0,0,.143.079,1.183,1.183,0,0,0,.19.111c.016,0,.016.016.032.016.063.032.127.079.19.111.19.111.349.206.508.285l.523.3c.048.032.111.063.159.1l.1.048c.016.016.032.016.048.032a.034.034,0,0,1,.032.032.016.016,0,0,1,.016.016c.032.016.048.032.063.032a.055.055,0,0,0,.032.016.055.055,0,0,1,.032.016.055.055,0,0,0,.032.016c.016,0,.016,0,.016.016h.016ZM1.11-5.852c.063-.159.127-.3.19-.46-.174.365-.317.714-.46,1.063.016-.032.016-.048.032-.079Zm-.4.983C.65-4.726.6-4.583.555-4.441.6-4.583.65-4.726.714-4.869ZM.428-4a2.446,2.446,0,0,0-.079.27A2.446,2.446,0,0,1,.428-4Zm-.238.9c-.016.032-.016.063-.032.1C.174-3.029.174-3.061.19-3.093ZM1.7-12.624C.872-13.1.317-13.4.111-13.512.333-13.385.872-13.084,1.7-12.624Zm.539.317.016,2.078C2.236-11.292,2.236-12.339,2.236-12.307Zm-.9,5.947a.5.5,0,0,0,.079-.159c.254-.523.523-1.063.841-1.6C1.9-7.517,1.6-6.93,1.332-6.36Z" transform="translate(280 55.285) rotate(180)" fill="#393971"/>
      <path id="Vector-63" data-name="Vector" d="M6.93-1.142V0s-.143-.1-.4-.238A.942.942,0,0,0,6.407-.3H6.391L5.868-.6c-.111-.063-.238-.143-.381-.222A2.946,2.946,0,0,1,5.186-1c-.127-.063-.238-.143-.381-.206-.079-.048-.174-.1-.254-.143-.111-.063-.206-.111-.317-.174S4-1.665,3.886-1.729c-.127-.079-.285-.159-.428-.238a.885.885,0,0,0-.127-.079c-.222-.143-.476-.27-.73-.412l-.333-.19c-.3-.174-.619-.365-.936-.539Q.642-3.592,0-3.949v-4.2c.238-.412.492-.809.73-1.189.079-.111.159-.222.238-.349.111-.159.222-.349.349-.507.048-.063.1-.111.143-.174.19-.254.365-.476.555-.7.079-.1.159-.206.238-.3l.111-.111c.079-.1.174-.19.254-.27.1-.111.206-.222.3-.333a1.7,1.7,0,0,1,.254-.222,1.43,1.43,0,0,1,.159-.143l.111-.111c.143-.127.285-.238.412-.333a.556.556,0,0,1,.127-.079c.032-.016.048-.048.079-.063l.143-.1a2.946,2.946,0,0,1,.3-.174c.063-.032.111-.048.174-.079.016-.016.032-.016.063-.032a.12.12,0,0,0,.063-.032l.285-.1c.063-.016.111,0,.159-.016h.19a1.055,1.055,0,0,1,.381.111l.523.3a.016.016,0,0,0,.016.016.594.594,0,0,1,.206.19l.016.016a1.4,1.4,0,0,1,.1.159c.016.032.032.079.048.111a.055.055,0,0,0,.016.032c0,.016,0,.016.016.032a1.473,1.473,0,0,0,.063.206.2.2,0,0,0,.016.1c0,.032,0,.048.016.063,0,.032.016.048.016.079,0,.1.016.19.016.3v10.7Z" transform="translate(93.162 166.014) rotate(180)" fill="#30305e"/>
      <g id="Group-67" data-name="Group">
        <g id="Group-68" data-name="Group">
          <path id="Vector-64" data-name="Vector" d="M1.872-.258A4.151,4.151,0,0,0,3.759-3.509c0-1.205-.856-1.665-1.887-1.078A4.069,4.069,0,0,0,0-1.336C-.016-.147.841.345,1.872-.258Z" transform="translate(102.25 164.329) rotate(180)" fill="#fff"/>
        </g>
        <g id="Group-69" data-name="Group">
          <path id="Vector-65" data-name="Vector" d="M1.9-.261A4.177,4.177,0,0,0,3.774-3.512c0-1.189-.856-1.665-1.887-1.078A4.169,4.169,0,0,0,0-1.339C0-.134.856.342,1.9-.261Z" transform="translate(113.113 158.078) rotate(180)" fill="#fff"/>
        </g>
        <g id="Group-70" data-name="Group">
          <path id="Vector-66" data-name="Vector" d="M1.9-.258A4.1,4.1,0,0,0,3.774-3.525c0-1.189-.856-1.665-1.887-1.063A4.127,4.127,0,0,0,0-1.336C0-.147.856.345,1.9-.258Z" transform="translate(123.945 151.816) rotate(180)" fill="#fff"/>
        </g>
      </g>
    </g>
  </g>
</svg>
