<svg xmlns="http://www.w3.org/2000/svg" width="19" height="18" viewBox="0 0 19 18">
  <g id="ICON_-_SETTING" data-name="ICON - SETTING" transform="translate(-288 -36)">
    <path id="Vector" d="M17.358,6.926a3.476,3.476,0,0,1-.844-.68,3.184,3.184,0,0,1,.081-1.109,2.6,2.6,0,0,0-.384-2.5,3,3,0,0,0-2.64-.364,3.626,3.626,0,0,1-1.17.076,3.47,3.47,0,0,1-.717-.8C11.169.858,10.528,0,9.5,0S7.823.858,7.309,1.549a3.5,3.5,0,0,1-.717.8,3.738,3.738,0,0,1-1.17-.076,3,3,0,0,0-2.64.364,2.613,2.613,0,0,0-.384,2.5A3.093,3.093,0,0,1,2.479,6.25a3.509,3.509,0,0,1-.848.68C.905,7.413,0,8.02,0,9s.905,1.585,1.634,2.072a3.587,3.587,0,0,1,.848.68A3.189,3.189,0,0,1,2.4,12.859a2.6,2.6,0,0,0,.384,2.5,3.012,3.012,0,0,0,2.64.364,3.621,3.621,0,0,1,1.17-.076,3.424,3.424,0,0,1,.717.8C7.827,17.142,8.472,18,9.5,18s1.673-.858,2.187-1.549a3.5,3.5,0,0,1,.717-.8,3.65,3.65,0,0,1,1.17.08,3,3,0,0,0,2.64-.364,2.613,2.613,0,0,0,.384-2.5,3.089,3.089,0,0,1-.081-1.109,3.509,3.509,0,0,1,.848-.68C18.095,10.587,19,9.976,19,9S18.087,7.413,17.358,6.926Zm-1,2.81a3.651,3.651,0,0,0-1.443,1.389,3.515,3.515,0,0,0-.027,2,3.689,3.689,0,0,1,.092,1.073,4.2,4.2,0,0,1-1.128-.087,4.115,4.115,0,0,0-2.114.025,3.689,3.689,0,0,0-1.466,1.367c-.211.284-.606.814-.767.862-.184-.047-.579-.574-.79-.862a3.663,3.663,0,0,0-1.466-1.367,2.453,2.453,0,0,0-.905-.153,8.073,8.073,0,0,0-1.209.127,4.323,4.323,0,0,1-1.132.087A3.656,3.656,0,0,1,4.1,13.132a3.515,3.515,0,0,0-.027-2A3.677,3.677,0,0,0,2.628,9.74a3.746,3.746,0,0,1-.909-.727c.05-.175.606-.549.909-.749A3.651,3.651,0,0,0,4.071,6.875a3.515,3.515,0,0,0,.027-2A3.674,3.674,0,0,1,4.006,3.8a4.285,4.285,0,0,1,1.128.087,4.116,4.116,0,0,0,2.114-.025A3.689,3.689,0,0,0,8.713,2.5c.211-.284.606-.814.767-.862.184.047.579.574.79.862a3.663,3.663,0,0,0,1.466,1.367,4.115,4.115,0,0,0,2.114.025A4.3,4.3,0,0,1,14.979,3.8a3.656,3.656,0,0,1-.092,1.069,3.515,3.515,0,0,0,.027,2,3.677,3.677,0,0,0,1.443,1.389,3.541,3.541,0,0,1,.9.738A3.518,3.518,0,0,1,16.36,9.736Z" transform="translate(288 36)" fill="#333"/>
    <path id="Vector-2" data-name="Vector" d="M3.879,0A3.786,3.786,0,0,0,0,3.676,3.783,3.783,0,0,0,3.879,7.351,3.783,3.783,0,0,0,7.758,3.676,3.786,3.786,0,0,0,3.879,0Zm0,5.715a2.1,2.1,0,0,1-2.152-2.04,2.1,2.1,0,0,1,2.152-2.04,2.1,2.1,0,0,1,2.152,2.04A2.1,2.1,0,0,1,3.879,5.715Z" transform="translate(293.617 41.323)" fill="#333"/>
  </g>
</svg>
