<svg xmlns="http://www.w3.org/2000/svg" width="275" height="187" viewBox="0 0 275 187">
  <g id="Groupe_7" data-name="Groupe 7" transform="translate(-50 -637)">
    <rect id="Rectangle_12" data-name="Rectangle 12" width="275" height="187" rx="11" transform="translate(50 637)" fill="#ffda7e"/>
    <g id="ILLUSTRATION">
      <g id="Group">
        <path id="Vector" d="M117.58-67.75l-.24-85.77L0-85.78.24,0Z" transform="translate(241.04 658.35) rotate(180)" fill="#55dfff" opacity="0.7"/>
      </g>
      <g id="Group-2" data-name="Group">
        <g id="Group-3" data-name="Group">
          <path id="Vector-2" data-name="Vector" d="M11.2-6.46l-.02-8.86L0-8.86.02,0Z" transform="translate(235.72 719.04) rotate(180)" fill="#f2c557"/>
        </g>
        <g id="Group-4" data-name="Group">
          <path id="Vector-3" data-name="Vector" d="M22.51-12.99V-14.8L0-1.8.01,0Z" transform="translate(235.56 667.51) rotate(180)" fill="#fff"/>
        </g>
        <g id="Group-5" data-name="Group">
          <path id="Vector-4" data-name="Vector" d="M7.77-1.063v-.68C3.82.537.6-1.3.59-5.833a15.751,15.751,0,0,1,7.14-12.36v-.68C3.46-16.4-.01-10.4,0-5.493S3.49,1.407,7.77-1.063Z" transform="translate(216.69 707.117) rotate(180)" fill="#fff"/>
        </g>
        <g id="Group-6" data-name="Group">
          <g id="Group-7" data-name="Group">
            <path id="Vector-5" data-name="Vector" d="M7.77-1.061v-.68C3.83.539.6-1.3.59-5.831a15.733,15.733,0,0,1,7.13-12.35c3.95-2.28,7.16-.45,7.18,4.09l.59-.34c-.01-4.91-3.5-6.9-7.77-4.43S-.02-10.4,0-5.491,3.5,1.409,7.77-1.061Z" transform="translate(235.94 696.009) rotate(180)" fill="#fff"/>
          </g>
          <g id="Group-8" data-name="Group">
            <path id="Vector-6" data-name="Vector" d="M.01,0C4.44-2.56,8.05-8.8,8.03-13.89l-.3.17-.59.34-.3.17A15.09,15.09,0,0,1,0-1.37V-.35Z" transform="translate(228.18 696.73) rotate(180)" fill="#f2c557"/>
          </g>
          <g id="Group-9" data-name="Group">
            <path id="Vector-7" data-name="Vector" d="M14.63-8.45l-.01-1.8L0-1.8V0Z" transform="translate(235.61 686.26) rotate(180)" fill="#fff"/>
          </g>
          <g id="Group-10" data-name="Group">
            <path id="Vector-8" data-name="Vector" d="M9.99-5.76V-7.57L0-1.81V0Z" transform="translate(235.59 678.76) rotate(180)" fill="#fff"/>
          </g>
          <g id="Group-11" data-name="Group">
            <path id="Vector-9" data-name="Vector" d="M15.9-9.17l-.01-1.81L0-1.8.01,0Z" transform="translate(235.58 675.01) rotate(180)" fill="#fff"/>
          </g>
          <g id="Group-12" data-name="Group">
            <path id="Vector-10" data-name="Vector" d="M22.51-12.99,22.5-14.8,0-1.81.01,0Z" transform="translate(235.6 682.51) rotate(180)" fill="#fff"/>
          </g>
          <g id="Group-13" data-name="Group">
            <path id="Vector-11" data-name="Vector" d="M15.29-8.83l-.01-1.8L0-1.81.01,0Z" transform="translate(218.46 696.16) rotate(180)" fill="#fff"/>
          </g>
          <g id="Group-14" data-name="Group">
            <path id="Vector-12" data-name="Vector" d="M7.41-4.27V-6.08L0-1.81.01,0Z" transform="translate(210.57 696.96) rotate(180)" fill="#fff"/>
          </g>
          <g id="Group-15" data-name="Group">
            <path id="Vector-13" data-name="Vector" d="M19.92-11.5v-1.81L0-1.81V0Z" transform="translate(223.07 685.98) rotate(180)" fill="#fff"/>
          </g>
          <g id="Group-16" data-name="Group">
            <path id="Vector-14" data-name="Vector" d="M14.02-8.1V-9.9L0-1.81.01,0Z" transform="translate(217.16 685.64) rotate(180)" fill="#fff"/>
          </g>
          <g id="Group-17" data-name="Group">
            <path id="Vector-15" data-name="Vector" d="M24.49-14.14v-1.81L0-1.81V0Z" transform="translate(227.62 675.84) rotate(180)" fill="#fff"/>
          </g>
        </g>
        <g id="Group-18" data-name="Group">
          <path id="Vector-16" data-name="Vector" d="M11.2-6.45l-.03-8.86L0-8.86.02,0Z" transform="translate(206.89 735.69) rotate(180)" fill="#f2c557"/>
        </g>
        <g id="Group-19" data-name="Group">
          <path id="Vector-17" data-name="Vector" d="M8.07,0c4.44-2.56,8.04-8.79,8.02-13.89s-3.63-7.16-8.07-4.6S-.02-9.7,0-4.6l.3-.17.59-.34.3-.17A15.079,15.079,0,0,1,8.02-17.12c3.78-2.18,6.87-.42,6.88,3.92A15.063,15.063,0,0,1,8.06-1.36V0Z" transform="translate(197.75 718.95) rotate(180)" fill="#f2c557"/>
        </g>
        <g id="Group-20" data-name="Group">
          <path id="Vector-18" data-name="Vector" d="M7.4-4.27V-6.08L0-1.81V0Z" transform="translate(174.16 717.98) rotate(180)" fill="#fff"/>
        </g>
        <g id="Group-21" data-name="Group">
          <path id="Vector-19" data-name="Vector" d="M15.28-8.82v-1.8L0-1.81V0Z" transform="translate(182.05 717.18) rotate(180)" fill="#fff"/>
        </g>
        <g id="Group-22" data-name="Group">
          <g id="Group-23" data-name="Group">
            <path id="Vector-20" data-name="Vector" d="M7.77-1.061v-.68C3.83.539.6-1.3.59-5.831L0-5.491C.01-.581,3.49,1.409,7.77-1.061Z" transform="translate(197.45 718.229) rotate(180)" fill="#fff"/>
          </g>
          <g id="Group-24" data-name="Group">
            <path id="Vector-21" data-name="Vector" d="M14.63-8.44l-.01-1.81L0-1.8V0Z" transform="translate(199.2 707.28) rotate(180)" fill="#fff"/>
          </g>
          <g id="Group-25" data-name="Group">
            <path id="Vector-22" data-name="Vector" d="M9.99-5.77V-7.58L0-1.81V0Z" transform="translate(199.18 699.77) rotate(180)" fill="#fff"/>
          </g>
          <g id="Group-26" data-name="Group">
            <path id="Vector-23" data-name="Vector" d="M5.42-3.12,5.41-4.93,0-1.8V0Z" transform="translate(199.16 692.28) rotate(180)" fill="#fff"/>
          </g>
          <g id="Group-27" data-name="Group">
            <path id="Vector-24" data-name="Vector" d="M15.89-9.17v-1.81L0-1.8V0Z" transform="translate(199.17 696.03) rotate(180)" fill="#fff"/>
          </g>
          <g id="Group-28" data-name="Group">
            <path id="Vector-25" data-name="Vector" d="M22.51-12.99V-14.8L0-1.8.01,0Z" transform="translate(199.2 703.53) rotate(180)" fill="#fff"/>
          </g>
          <g id="Group-29" data-name="Group">
            <path id="Vector-26" data-name="Vector" d="M22.5-13v-1.8L0-1.81V0Z" transform="translate(199.15 688.52) rotate(180)" fill="#fff"/>
          </g>
          <g id="Group-30" data-name="Group">
            <path id="Vector-27" data-name="Vector" d="M19.92-11.5v-1.81L0-1.81.01,0Z" transform="translate(186.67 707) rotate(180)" fill="#fff"/>
          </g>
          <g id="Group-31" data-name="Group">
            <path id="Vector-28" data-name="Vector" d="M14.01-8.09v-1.8L0-1.81V0Z" transform="translate(180.75 706.66) rotate(180)" fill="#fff"/>
          </g>
          <g id="Group-32" data-name="Group">
            <path id="Vector-29" data-name="Vector" d="M7.4-4.27V-6.08L0-1.8.01,0Z" transform="translate(174.12 702.98) rotate(180)" fill="#fff"/>
          </g>
        </g>
        <g id="Group-33" data-name="Group">
          <path id="Vector-30" data-name="Vector" d="M11.21-6.46l-.03-8.85L0-8.86.03,0Z" transform="translate(178.07 752.33) rotate(180)" fill="#f2c557"/>
        </g>
        <g id="Group-34" data-name="Group">
          <path id="Vector-31" data-name="Vector" d="M8.07-1.11C12.5-3.67,16.1-9.91,16.09-15s-3.64-7.16-8.07-4.6a16.721,16.721,0,0,0-6.06,6.68A15.88,15.88,0,0,0,0-5.71C.01-2.2,1.72-.01,4.46,0L4.6-.39l.26-.76.13-.38C2.65-1.54,1.2-3.39,1.19-6.39a13.525,13.525,0,0,1,1.67-6.15,14.282,14.282,0,0,1,5.17-5.7c3.78-2.18,6.86-.42,6.88,3.93A15.1,15.1,0,0,1,8.08-2.47v1.36Z" transform="translate(178.51 728.95) rotate(180)" fill="#f2c557"/>
        </g>
        <g id="Group-35" data-name="Group">
          <path id="Vector-32" data-name="Vector" d="M3.47-1.06v-.68A6.481,6.481,0,0,1,.26-.76L0,0A7.065,7.065,0,0,0,3.47-1.06Z" transform="translate(173.91 729.34) rotate(180)" fill="#fff"/>
        </g>
        <g id="Group-36" data-name="Group">
          <path id="Vector-33" data-name="Vector" d="M.06,0C4.49-2.56,8.09-8.79,8.07-13.89S4.44-21.05,0-18.5v1.36c3.78-2.18,6.87-.42,6.88,3.92A15.106,15.106,0,0,1,.05-1.38V0Z" transform="translate(208.98 707.84) rotate(180)" fill="#f2c557"/>
        </g>
        <g id="Group-37" data-name="Group">
          <path id="Vector-34" data-name="Vector" d="M2.64-1.52,2.63-6.67,0-5.15.01,0Z" transform="translate(153.35 752.71) rotate(180)" fill="#f2c557"/>
        </g>
        <g id="Group-38" data-name="Group">
          <path id="Vector-35" data-name="Vector" d="M13.03-.17c3.24-1.87,3.19-20.05,6.43-21.92S22.74-9.53,25.99-11.4s3.23-7.1,6.48-8.97l-.04-13.07L0-14.72.04-1.65c3.24-1.87,3.22-7.1,6.47-8.97S9.79,1.7,13.03-.17Z" transform="translate(162.95 768.39) rotate(180)" fill="#fff"/>
        </g>
        <g id="Group-39" data-name="Group">
          <path id="Vector-36" data-name="Vector" d="M2.65-1.52,2.63-9.68,0-8.17.03,0Z" transform="translate(148.23 752.65) rotate(180)" fill="#f2c557"/>
        </g>
        <g id="Group-40" data-name="Group">
          <path id="Vector-37" data-name="Vector" d="M2.65-1.51,2.62-12.7,0-11.19.03,0Z" transform="translate(143.1 752.59) rotate(180)" fill="#f2c557"/>
        </g>
        <g id="Group-41" data-name="Group">
          <path id="Vector-38" data-name="Vector" d="M2.67-1.52l-.04-14.2L0-14.2.04,0Z" transform="translate(137.98 752.53) rotate(180)" fill="#f2c557"/>
        </g>
        <g id="Group-42" data-name="Group">
          <path id="Vector-39" data-name="Vector" d="M2.68-1.52,2.63-18.74,0-17.22.05,0Z" transform="translate(132.86 752.47) rotate(180)" fill="#f2c557"/>
        </g>
        <g id="Group-43" data-name="Group">
          <path id="Vector-40" data-name="Vector" d="M7.41-4.27V-6.08L0-1.81.01,0Z" transform="translate(210.53 681.96) rotate(180)" fill="#fff"/>
        </g>
        <g id="Group-44" data-name="Group">
          <path id="Vector-41" data-name="Vector" d="M5.43-3.13l-.01-1.8L0-1.8.01,0Z" transform="translate(235.57 671.26) rotate(180)" fill="#fff"/>
        </g>
        <g id="Group-45" data-name="Group">
          <path id="Vector-42" data-name="Vector" d="M24.49-14.14v-1.8L0-1.81.01,0Z" transform="translate(191.22 696.86) rotate(180)" fill="#fff"/>
        </g>
        <g id="Group-46" data-name="Group">
          <g id="Group-47" data-name="Group">
            <path id="Vector-43" data-name="Vector" d="M14.63-8.44l-.01-1.8L0-1.8V0Z" transform="translate(162.8 728.3) rotate(180)" fill="#fff"/>
          </g>
          <g id="Group-48" data-name="Group">
            <path id="Vector-44" data-name="Vector" d="M9.99-5.77l-.01-1.8L0-1.81.01,0Z" transform="translate(162.78 720.79) rotate(180)" fill="#fff"/>
          </g>
          <g id="Group-49" data-name="Group">
            <path id="Vector-45" data-name="Vector" d="M5.42-3.12v-1.8L0-1.8.01,0Z" transform="translate(162.76 713.3) rotate(180)" fill="#fff"/>
          </g>
          <g id="Group-50" data-name="Group">
            <path id="Vector-46" data-name="Vector" d="M15.9-9.17l-.01-1.8L0-1.8.01,0Z" transform="translate(162.77 717.05) rotate(180)" fill="#fff"/>
          </g>
          <g id="Group-51" data-name="Group">
            <path id="Vector-47" data-name="Vector" d="M22.51-13l-.01-1.81L0-1.81.01,0Z" transform="translate(162.79 724.54) rotate(180)" fill="#fff"/>
          </g>
          <g id="Group-52" data-name="Group">
            <path id="Vector-48" data-name="Vector" d="M15.29-8.82l-.01-1.8L0-1.8.01,0Z" transform="translate(145.65 738.2) rotate(180)" fill="#fff"/>
          </g>
          <g id="Group-53" data-name="Group">
            <path id="Vector-49" data-name="Vector" d="M22.51-12.99,22.5-14.8,0-1.81.01,0Z" transform="translate(162.75 709.54) rotate(180)" fill="#fff"/>
          </g>
          <g id="Group-54" data-name="Group">
            <path id="Vector-50" data-name="Vector" d="M19.93-11.5l-.01-1.8L0-1.81.01,0Z" transform="translate(150.27 728.02) rotate(180)" fill="#fff"/>
          </g>
          <g id="Group-55" data-name="Group">
            <path id="Vector-51" data-name="Vector" d="M14.02-8.09l-.01-1.8L0-1.8V0Z" transform="translate(144.35 727.68) rotate(180)" fill="#fff"/>
          </g>
          <g id="Group-56" data-name="Group">
            <path id="Vector-52" data-name="Vector" d="M24.49-14.14l-.01-1.8L0-1.8V0Z" transform="translate(154.81 717.88) rotate(180)" fill="#fff"/>
          </g>
        </g>
        <g id="Group-57" data-name="Group">
          <path id="Vector-53" data-name="Vector" d="M7.41-4.28V-6.09L0-1.81.01,0Z" transform="translate(137.72 723.99) rotate(180)" fill="#fff"/>
        </g>
        <g id="Group-58" data-name="Group">
          <path id="Vector-54" data-name="Vector" d="M7.4-4.27V-6.08L0-1.8V0Z" transform="translate(137.76 739) rotate(180)" fill="#fff"/>
        </g>
        <g id="Group-59" data-name="Group">
          <path id="Vector-55" data-name="Vector" d="M11.21-6.45l-.03-8.86L0-8.86.03,0Z" transform="translate(221.31 727.37) rotate(180)" fill="#f2c557"/>
        </g>
        <g id="Group-60" data-name="Group">
          <path id="Vector-56" data-name="Vector" d="M11.21-6.45l-.03-8.86L0-8.86.03,0Z" transform="translate(192.48 744.01) rotate(180)" fill="#f2c557"/>
        </g>
        <g id="Group-61" data-name="Group">
          <path id="Vector-57" data-name="Vector" d="M11.2-6.46l-.02-8.86L0-8.86.03,0Z" transform="translate(235.76 732.21) rotate(180)" fill="#f2c557"/>
        </g>
        <g id="Group-62" data-name="Group">
          <path id="Vector-58" data-name="Vector" d="M11.2-6.45l-.02-8.86L0-8.86.02,0Z" transform="translate(221.34 740.54) rotate(180)" fill="#f2c557"/>
        </g>
        <g id="Group-63" data-name="Group">
          <path id="Vector-59" data-name="Vector" d="M11.2-6.45l-.02-8.86L0-8.86.02,0Z" transform="translate(206.93 748.86) rotate(180)" fill="#f2c557"/>
        </g>
        <g id="Group-64" data-name="Group">
          <path id="Vector-60" data-name="Vector" d="M11.21-6.46l-.03-8.85L0-8.86.03,0Z" transform="translate(192.52 757.18) rotate(180)" fill="#f2c557"/>
        </g>
        <g id="Group-65" data-name="Group">
          <path id="Vector-61" data-name="Vector" d="M11.2-6.45l-.02-8.86L0-8.86.02,0Z" transform="translate(178.1 765.5) rotate(180)" fill="#f2c557"/>
        </g>
      </g>
      <g id="Group-66" data-name="Group">
        <path id="Vector-62" data-name="Vector" d="M116.17-66.35l-2.61,1.51L99.91-56.96,98.1-55.92l-6.03,3.48-.56.32-9.49,5.48-2.01,1.16L73.97-42l-2.39,1.38L53.79-30.34l-3.96,2.29L43.8-24.57l-6.03,3.48-2.31,1.33-7.78,4.49-1.97,1.14-3.72,2.15L13.54-7.1,7.63-3.69,4.67-1.98,1.61-.21c-.05.03-.09.05-.13.07s-.07.03-.11.05c-.01,0-.01,0-.02.01H1.34c-.02.01-.05.02-.07.03a.292.292,0,0,1-.09.02.637.637,0,0,0-.07.02H1.09A.308.308,0,0,1,1,0H.86C.84,0,.82-.01.8-.01A1.091,1.091,0,0,1,.69-.07L.36-.26A.574.574,0,0,1,.14-.5.5.5,0,0,1,.09-.63L.06-.75A.5.5,0,0,1,.04-.87C.04-.91.03-.95.03-1V-7.29A2.423,2.423,0,0,1,0-7.76v-.8l6.02-3.47,2.32-1.34q5.79-3.345,11.59-6.69l4.16-2.4,6.03-3.48,6.03-3.48,6.03-3.48,6.04-3.48,12.07-6.97,6.04-3.48,6.03-3.48,6.03-3.48,6.03-3.48,6.03-3.48,6.03-3.48,6.03-3.48,6.02-3.48,6.02-3.48,6.02-3.47a9.072,9.072,0,0,0-2.74,3.19v2.65q.33.195.69.39l.21.12.78.45.15.09c.05.03.09.05.14.08.14.08.29.17.43.25l.06.03c.13.08.26.15.38.22.01.01.03.01.04.02a.2.2,0,0,0,.08.04.435.435,0,0,1,.07.04.406.406,0,0,0,.09.05.746.746,0,0,0,.12.07c.01,0,.01.01.02.01.04.02.08.05.12.07.12.07.22.13.32.18l.33.19c.03.02.07.04.1.06l.06.03c.01.01.02.01.03.02a.021.021,0,0,1,.02.02.01.01,0,0,1,.01.01c.02.01.03.02.04.02a.035.035,0,0,0,.02.01.035.035,0,0,1,.02.01.035.035,0,0,0,.02.01c.01,0,.01,0,.01.01h.01ZM.7-3.69c.04-.1.08-.19.12-.29-.11.23-.2.45-.29.67.01-.02.01-.03.02-.05Zm-.25.62c-.04.09-.07.18-.1.27C.38-2.89.41-2.98.45-3.07Zm-.18.55a1.543,1.543,0,0,0-.05.17A1.543,1.543,0,0,1,.27-2.52Zm-.15.57c-.01.02-.01.04-.02.06C.11-1.91.11-1.93.12-1.95Zm.95-6.01c-.52-.3-.87-.49-1-.56C.21-8.44.55-8.25,1.07-7.96Zm.34.2.01,1.31C1.41-7.12,1.41-7.78,1.41-7.76ZM.84-4.01a.313.313,0,0,0,.05-.1c.16-.33.33-.67.53-1.01C1.2-4.74,1.01-4.37.84-4.01Z" transform="translate(244.2 649) rotate(180)" fill="#393971"/>
        <path id="Vector-63" data-name="Vector" d="M4.37-.72V0s-.09-.06-.25-.15a.594.594,0,0,0-.08-.04H4.03L3.7-.38c-.07-.04-.15-.09-.24-.14a1.858,1.858,0,0,1-.19-.11c-.08-.04-.15-.09-.24-.13-.05-.03-.11-.06-.16-.09-.07-.04-.13-.07-.2-.11s-.15-.09-.22-.13-.18-.1-.27-.15a.558.558,0,0,0-.08-.05c-.14-.09-.3-.17-.46-.26l-.21-.12c-.19-.11-.39-.23-.59-.34Q.405-2.265,0-2.49V-5.14c.15-.26.31-.51.46-.75.05-.07.1-.14.15-.22.07-.1.14-.22.22-.32.03-.04.06-.07.09-.11.12-.16.23-.3.35-.44.05-.06.1-.13.15-.19l.07-.07c.05-.06.11-.12.16-.17.06-.07.13-.14.19-.21A1.07,1.07,0,0,1,2-7.76a.9.9,0,0,1,.1-.09l.07-.07c.09-.08.18-.15.26-.21a.351.351,0,0,1,.08-.05c.02-.01.03-.03.05-.04l.09-.06a1.858,1.858,0,0,1,.19-.11c.04-.02.07-.03.11-.05.01-.01.02-.01.04-.02a.076.076,0,0,0,.04-.02l.18-.06c.04-.01.07,0,.1-.01h.12a.665.665,0,0,1,.24.07L4-8.29a.01.01,0,0,0,.01.01.374.374,0,0,1,.13.12l.01.01a.879.879,0,0,1,.06.1c.01.02.02.05.03.07a.035.035,0,0,0,.01.02c0,.01,0,.01.01.02a.929.929,0,0,0,.04.13.127.127,0,0,0,.01.06c0,.02,0,.03.01.04s.01.03.01.05c0,.06.01.12.01.19V-.72Z" transform="translate(126.39 718.82) rotate(180)" fill="#30305e"/>
        <g id="Group-67" data-name="Group">
          <g id="Group-68" data-name="Group">
            <path id="Vector-64" data-name="Vector" d="M1.18-.163a2.617,2.617,0,0,0,1.19-2.05c0-.76-.54-1.05-1.19-.68A2.566,2.566,0,0,0,0-.843C-.01-.093.53.217,1.18-.163Z" transform="translate(132.12 717.757) rotate(180)" fill="#fff"/>
          </g>
          <g id="Group-69" data-name="Group">
            <path id="Vector-65" data-name="Vector" d="M1.2-.164a2.634,2.634,0,0,0,1.18-2.05c0-.75-.54-1.05-1.19-.68A2.629,2.629,0,0,0,0-.844C0-.084.54.216,1.2-.164Z" transform="translate(138.97 713.816) rotate(180)" fill="#fff"/>
          </g>
          <g id="Group-70" data-name="Group">
            <path id="Vector-66" data-name="Vector" d="M1.2-.163a2.583,2.583,0,0,0,1.18-2.06c0-.75-.54-1.05-1.19-.67A2.6,2.6,0,0,0,0-.843C0-.093.54.217,1.2-.163Z" transform="translate(145.8 709.867) rotate(180)" fill="#fff"/>
          </g>
        </g>
      </g>
    </g>
  </g>
</svg>
