<svg xmlns="http://www.w3.org/2000/svg" width="31" height="30" viewBox="0 0 31 30">
  <path id="ICON_-_SEARCH" data-name="ICON - SEARCH" d="M12.688,24.558a12.866,12.866,0,0,0,7.741-2.576l8.185,7.636a1.44,1.44,0,0,0,1.992-.036,1.33,1.33,0,0,0-.038-1.927l-8.1-7.564a12,12,0,0,0,2.912-7.818A12.5,12.5,0,0,0,12.688,0,12.5,12.5,0,0,0,0,12.279,12.5,12.5,0,0,0,12.688,24.558Zm0-21.83a9.726,9.726,0,0,1,9.87,9.552,9.726,9.726,0,0,1-9.87,9.552,9.726,9.726,0,0,1-9.87-9.552A9.726,9.726,0,0,1,12.688,2.727Z" transform="translate(0 0)" fill="#bdbdbd"/>
</svg>
