<svg xmlns="http://www.w3.org/2000/svg" width="275" height="187" viewBox="0 0 275 187">
  <g id="Groupe_6" data-name="Groupe 6" transform="translate(-50 -232)">
    <rect id="Rectangle_5" data-name="Rectangle 5" width="275" height="187" rx="11" transform="translate(50 232)" fill="#ff7c78"/>
    <g id="ILLUSTRATION">
      <path id="Vector" d="M3.7-25.431C2.436-21.422-1.577-1.452.671-.181s4.787-4.009,17-20.745Z" transform="translate(169.962 298.973) rotate(180)" fill="#f0fbff"/>
      <path id="Vector-2" data-name="Vector" d="M20.91-1.864,2.829-12.91,0-4.311,8.4,0Z" transform="translate(197.451 372.565) rotate(180)" fill="#445780"/>
      <path id="Vector-3" data-name="Vector" d="M20.91-1.854,2.829-12.9,0-4.3,8.4,0Z" transform="translate(161.955 376.606) rotate(180)" fill="#445780"/>
      <path id="Vector-4" data-name="Vector" d="M20.91-1.854,2.829-12.9,0-4.311,8.4,0Z" transform="translate(235.765 340.871) rotate(180)" fill="#445780"/>
      <path id="Vector-5" data-name="Vector" d="M20.9-1.854,2.818-12.9,0-4.311,8.4,0Z" transform="translate(242.38 323.229) rotate(180)" fill="#445780"/>
      <path id="Vector-6" data-name="Vector" d="M.055-80.554c.4-1.617,14.36-1.757,30.774,7.63s55.976,33.084,67.41,46.3,20.8,23.3,19.05,26.23S91.494-11.551,80.652-17.133s-46.306-25.25-58.031-31.7S5.035-66.167,4.454-68.214-.537-78.2.055-80.554Z" transform="translate(260 312.95) rotate(180)" fill="#fff"/>
      <path id="Vector-7" data-name="Vector" d="M98.238-26.629c11.434,13.212,20.8,23.3,19.05,26.23-.172.28-.549.4-1.086.4-5.41-10.841-20.814-29.1-41.089-42C50.426-57.72,22.578-81.633,0-80.1a1.567,1.567,0,0,1,.054-.463c.4-1.617,14.36-1.757,30.774,7.63C47.242-63.528,86.8-39.841,98.238-26.629Z" transform="translate(259.999 312.948) rotate(180)" fill="#d1deee"/>
      <path id="Vector-8" data-name="Vector" d="M28.429-.019C31.15.7,74.735-19.546,107.854-24.245c0,0,.151-2.2-4.4-3.675S10.541-18.371,0-17.057C0-17.057,24.03-1.193,28.429-.019Z" transform="translate(214.855 355.853) rotate(180)" fill="#fff"/>
      <path id="Vector-9" data-name="Vector" d="M42.06-45.154C33.853-38.688,23.979-27.179,4.94,0,4.94,0-.137-1.207,0-5.992S16.761-47.363,21.548-56.879C21.548-56.879,45.642-47.967,42.06-45.154Z" transform="translate(246.073 298.982) rotate(180)" fill="#fff"/>
      <path id="Vector-10" data-name="Vector" d="M0-41.695c-.086-1.315,15.177,7.026,16.221,9.009S24.654,0,21.8,0s-5.561-1.638-7.347-5.485C12.843-8.966.388-35.822,0-41.695Z" transform="translate(164.3 283) rotate(180)" fill="#445780"/>
      <path id="Vector-11" data-name="Vector" d="M15.428-.5C17.955-1.635,37.8-10,40.243-10.687s2.248-3.136-4.69-3.233S1.165-14.61.089-13.241C-.987-11.851,7.9,2.88,15.428-.5Z" transform="translate(158.527 319.105) rotate(180)" fill="#f0fbff"/>
      <path id="Vector-12" data-name="Vector" d="M5.864-4.27c.312-2.554-.731-4.774-2.334-4.979S.367-7.547.055-4.992.787-.218,2.389-.014,5.552-1.716,5.864-4.27Z" transform="translate(199.012 376.56) rotate(180)" fill="#f0f9fd"/>
      <path id="Vector-13" data-name="Vector" d="M2.135-6.9c-.8,0-1.85,1.326-2.087,3.233C-.2-1.692.543-.1,1.371,0h.011c.882,0,1.925-1.326,2.162-3.233C3.792-5.205,3.049-6.789,2.221-6.9Z" transform="translate(197.854 377.748) rotate(180)" fill="#d1deee"/>
      <path id="Vector-14" data-name="Vector" d="M5.864-4.27c.312-2.554-.731-4.774-2.334-4.979S.367-7.546.055-4.992.787-.218,2.389-.014,5.552-1.727,5.864-4.27Z" transform="translate(163.516 380.591) rotate(180)" fill="#f0f9fd"/>
      <path id="Vector-15" data-name="Vector" d="M2.135-6.9c-.8,0-1.85,1.326-2.087,3.233C-.2-1.692.543-.1,1.371,0,2.253,0,3.3-1.326,3.533-3.233,3.781-5.205,3.039-6.789,2.21-6.9Z" transform="translate(162.358 381.779) rotate(180)" fill="#d1deee"/>
      <path id="Vector-16" data-name="Vector" d="M5.864-4.27c.312-2.543-.731-4.774-2.334-4.979S.367-7.546.055-4.992.787-.218,2.389-.014,5.552-1.727,5.864-4.27Z" transform="translate(237.326 344.855) rotate(180)" fill="#f0f9fd"/>
      <path id="Vector-17" data-name="Vector" d="M2.135-6.908c-.8,0-1.85,1.336-2.087,3.244C-.2-1.692.543-.1,1.371,0h.011c.882,0,1.925-1.326,2.162-3.233C3.792-5.205,3.049-6.8,2.221-6.9Z" transform="translate(236.168 346.033) rotate(180)" fill="#d1deee"/>
      <path id="Vector-18" data-name="Vector" d="M5.864-4.27c.312-2.543-.731-4.774-2.334-4.979S.367-7.546.055-4.992.787-.218,2.389-.014,5.552-1.727,5.864-4.27Z" transform="translate(243.952 327.214) rotate(180)" fill="#f0f9fd"/>
      <path id="Vector-19" data-name="Vector" d="M2.135-6.9c-.8,0-1.85,1.326-2.087,3.233C-.2-1.692.543-.1,1.371,0h.011c.882,0,1.925-1.326,2.162-3.233C3.792-5.205,3.049-6.789,2.221-6.9Z" transform="translate(242.794 328.402) rotate(180)" fill="#d1deee"/>
      <g id="Group">
        <path id="Vector-20" data-name="Vector" d="M7.917-2.263A10.177,10.177,0,0,0,2.861,0,29.575,29.575,0,0,1,0-5,9.856,9.856,0,0,1,7.917-7.748Z" transform="translate(255.352 375.647) rotate(180)" fill="#445780"/>
        <path id="Vector-21" data-name="Vector" d="M6.056,0A20.253,20.253,0,0,0,0-.787V-5.97A16.276,16.276,0,0,1,4.593-4.408C8.3-2.457,6.056,0,6.056,0Z" transform="translate(246.07 377.253) rotate(180)" fill="#445780"/>
      </g>
      <g id="Group-2" data-name="Group">
        <g id="Group-3" data-name="Group">
          <path id="Vector-22" data-name="Vector" d="M.968,0,0-.614V-2.382l.968.614Z" transform="translate(203.227 360.258) rotate(180)" fill="#445780"/>
          <path id="Vector-23" data-name="Vector" d="M.968,0,0-.625V-2.382l.968.614Z" transform="translate(205.152 361.486) rotate(180)" fill="#445780"/>
          <path id="Vector-24" data-name="Vector" d="M.968,0,0-.614V-2.371l.968.614Z" transform="translate(207.089 362.726) rotate(180)" fill="#445780"/>
          <path id="Vector-25" data-name="Vector" d="M.968,0,0-.614V-2.382l.968.614Z" transform="translate(210.95 365.183) rotate(180)" fill="#445780"/>
          <path id="Vector-26" data-name="Vector" d="M.968,0,0-.614V-2.371l.968.614Z" transform="translate(209.014 363.954) rotate(180)" fill="#445780"/>
          <path id="Vector-27" data-name="Vector" d="M.957,0,0-.614V-2.371l.957.614Z" transform="translate(197.429 356.572) rotate(180)" fill="#445780"/>
          <path id="Vector-28" data-name="Vector" d="M.968,0,0-.614V-2.371l.968.614Z" transform="translate(199.366 357.801) rotate(180)" fill="#445780"/>
          <path id="Vector-29" data-name="Vector" d="M.957,0,0-.614V-2.382l.957.625Z" transform="translate(201.291 359.029) rotate(180)" fill="#445780"/>
          <path id="Vector-30" data-name="Vector" d="M.968,0,0-.614V-2.382l.968.614Z" transform="translate(212.875 366.411) rotate(180)" fill="#445780"/>
          <path id="Vector-31" data-name="Vector" d="M.968,0,0-.614V-2.382l.968.614Z" transform="translate(220.599 371.336) rotate(180)" fill="#445780"/>
          <path id="Vector-32" data-name="Vector" d="M.957,0,0-.625V-2.382l.957.614Z" transform="translate(222.524 372.565) rotate(180)" fill="#445780"/>
          <path id="Vector-33" data-name="Vector" d="M.957,0,0-.614V-2.382l.957.625Z" transform="translate(218.662 370.108) rotate(180)" fill="#445780"/>
          <path id="Vector-34" data-name="Vector" d="M.968,0,0-.614V-2.371l.968.614Z" transform="translate(216.737 368.879) rotate(180)" fill="#445780"/>
          <path id="Vector-35" data-name="Vector" d="M.957,0,0-.614V-2.371l.957.614Z" transform="translate(214.801 367.651) rotate(180)" fill="#445780"/>
          <path id="Vector-36" data-name="Vector" d="M.968,0,0-.614V-2.382l.968.614Z" transform="translate(195.504 355.333) rotate(180)" fill="#445780"/>
          <path id="Vector-37" data-name="Vector" d="M.968-1.757V0L0-.614V-2.371Z" transform="translate(224.46 373.804) rotate(180)" fill="#445780"/>
          <path id="Vector-38" data-name="Vector" d="M.968,0,0-.614V-2.371l.968.614Z" transform="translate(174.271 341.797) rotate(180)" fill="#445780"/>
          <path id="Vector-39" data-name="Vector" d="M.968,0,0-.614V-2.382l.968.614Z" transform="translate(170.409 339.33) rotate(180)" fill="#445780"/>
          <path id="Vector-40" data-name="Vector" d="M.957,0,0-.614V-2.371l.957.614Z" transform="translate(172.335 340.569) rotate(180)" fill="#445780"/>
          <path id="Vector-41" data-name="Vector" d="M.957,0,0-.614V-2.382l.957.625Z" transform="translate(176.196 343.026) rotate(180)" fill="#445780"/>
          <path id="Vector-42" data-name="Vector" d="M.968,0,0-.614V-2.382l.968.625Z" transform="translate(168.484 338.101) rotate(180)" fill="#445780"/>
          <path id="Vector-43" data-name="Vector" d="M.968,0,0-.614V-2.382l.968.625Z" transform="translate(226.385 375.033) rotate(180)" fill="#445780"/>
          <path id="Vector-44" data-name="Vector" d="M.968,0,0-.614V-2.382l.968.614Z" transform="translate(178.132 344.255) rotate(180)" fill="#445780"/>
          <path id="Vector-45" data-name="Vector" d="M.968,0,0-.614V-2.371l.968.614Z" transform="translate(166.548 336.873) rotate(180)" fill="#445780"/>
          <path id="Vector-46" data-name="Vector" d="M.957,0,0-.614V-2.382l.957.614Z" transform="translate(180.058 345.483) rotate(180)" fill="#445780"/>
          <path id="Vector-47" data-name="Vector" d="M.968,0,0-.614V-2.371l.968.614Z" transform="translate(189.717 351.647) rotate(180)" fill="#445780"/>
          <path id="Vector-48" data-name="Vector" d="M.957,0,0-.614V-2.382l.957.614Z" transform="translate(193.568 354.104) rotate(180)" fill="#445780"/>
          <path id="Vector-49" data-name="Vector" d="M.968,0,0-.614V-2.371l.968.614Z" transform="translate(191.643 352.876) rotate(180)" fill="#445780"/>
          <path id="Vector-50" data-name="Vector" d="M.968,0,0-.625V-2.382l.968.614Z" transform="translate(187.781 350.408) rotate(180)" fill="#445780"/>
          <path id="Vector-51" data-name="Vector" d="M.968,0,0-.614V-2.371l.968.614Z" transform="translate(181.994 346.722) rotate(180)" fill="#445780"/>
          <path id="Vector-52" data-name="Vector" d="M.968,0,0-.614V-2.371l.968.614Z" transform="translate(183.919 347.951) rotate(180)" fill="#445780"/>
          <path id="Vector-53" data-name="Vector" d="M.968,0,0-.614V-2.382l.968.614Z" transform="translate(185.855 349.18) rotate(180)" fill="#445780"/>
        </g>
      </g>
      <path id="Vector-54" data-name="Vector" d="M15.5-.14a2.226,2.226,0,0,1-.6-.226,2.97,2.97,0,0,1-.753-.453,4.52,4.52,0,0,1-.817-.722,6.5,6.5,0,0,1-.828-.991,9.734,9.734,0,0,1-.817-1.229,13.752,13.752,0,0,1-.764-1.433c-.516-1-.936-2.155-1.431-3.319s-1.011-2.425-1.549-3.707c-1.043-2.586-2.151-5.334-3.259-8.093s-2.216-5.507-3.216-8.1A29.945,29.945,0,0,1,.151-32.255,5.109,5.109,0,0,1,0-33.268a1.234,1.234,0,0,1,.495-1.164,1.5,1.5,0,0,1,1.14-.032,5.448,5.448,0,0,1,.839.334A19.607,19.607,0,0,1,5.1-32.535c.742.517,1.388.981,1.9,1.369,1.043.776,1.613,1.25,1.613,1.25s-.635-.388-1.743-1.056c-.559-.334-1.226-.744-2.011-1.185S3.184-33.1,2.205-33.526a6.915,6.915,0,0,0-.753-.259.926.926,0,0,0-.581,0c-.054.011-.108.2-.086.474a4.329,4.329,0,0,0,.172.841,37.182,37.182,0,0,0,1.452,3.686c.129.291.247.593.376.884L9.3-24.388l-5.916-2.1c.785,1.875,1.581,3.815,2.377,5.755.129.334.258.668.4,1.013l5.755,3.19L6.733-18.31c.753,1.951,1.5,3.88,2.184,5.722.226.614.441,1.218.656,1.8l4.969,3L10.089-9.365c.065.183.14.366.2.55.441,1.218.774,2.339,1.226,3.352a14.728,14.728,0,0,0,.656,1.433,8.548,8.548,0,0,0,.678,1.25,6.22,6.22,0,0,0,.71,1.013A4.958,4.958,0,0,0,14.284-1a2.989,2.989,0,0,0,.678.507,2.22,2.22,0,0,0,.559.3c.323.129.495.194.495.194S15.833-.054,15.5-.14Z" transform="translate(159.814 285.489) rotate(180)" fill="#d1deee"/>
    </g>
    <text id="_PrayforHunterz" data-name="#PrayforHunterz" transform="translate(91 246)" fill="#fff" font-size="24.316" font-family="Nunito-ExtraBold, Nunito" font-weight="800"><tspan x="0" y="25">#TravelSafe</tspan></text>
  </g>
</svg>
