<svg xmlns="http://www.w3.org/2000/svg" width="18" height="18" viewBox="0 0 18 18">
  <path id="ICON_-_NOTIFICATION" data-name="ICON - NOTIFICATION" d="M8.345,15.8A3.233,3.233,0,0,0,11.481,18a3.189,3.189,0,0,0,3.231-2.622c1.83-.364,2.9-.953,3.2-1.771.315-.873-.209-1.785-1.55-2.716-1.543-1.069-1.924-3.113-2.29-5.087C13.555,3.084,12.981,0,9,0S4.437,3.084,3.93,5.8c-.37,1.975-.748,4.018-2.29,5.087-1.346.931-1.865,1.847-1.55,2.716C.593,15,3.371,15.742,8.345,15.8Zm3.136.564a1.536,1.536,0,0,1-1.208-.575q1.375-.033,2.507-.142A1.509,1.509,0,0,1,11.481,16.364ZM2.7,12.2c2.105-1.458,2.566-3.935,2.975-6.12C6.22,3.16,6.617,1.636,9,1.636S11.776,3.16,12.319,6.08c.405,2.185.87,4.658,2.975,6.12.842.582.925.887.937.887-.114.211-.874.549-2.511.793h-.028a.078.078,0,0,0-.028.007A32.973,32.973,0,0,1,9,14.167c-5.033,0-7.044-.731-7.225-1.051C1.773,13.113,1.825,12.811,2.7,12.2Z" fill="#333"/>
</svg>
