<svg xmlns="http://www.w3.org/2000/svg" width="25" height="30.001" viewBox="0 0 25 30.001">
  <path id="ICON_-_BOOKMARK" data-name="ICON - BOOKMARK" d="M0,4.358V28.636a1.361,1.361,0,0,0,.76,1.218,1.39,1.39,0,0,0,1.446-.127L12.5,22.091l10.294,7.636a1.384,1.384,0,0,0,1.446.127A1.361,1.361,0,0,0,25,28.636V4.358A4.383,4.383,0,0,0,20.594,0H4.406A4.383,4.383,0,0,0,0,4.358Zm2.757,0a1.644,1.644,0,0,1,1.648-1.63H20.6a1.644,1.644,0,0,1,1.648,1.63V25.909L13.327,19.3a1.391,1.391,0,0,0-1.654,0L2.757,25.909Z" fill="#bdbdbd"/>
</svg>
