<svg id="ICON_-_USER" data-name="ICON - USER" xmlns="http://www.w3.org/2000/svg" width="27" height="30" viewBox="0 0 27 30">
  <g id="Group_33" data-name="Group 33">
    <path id="Vector" d="M8.615,16.085c.731,0,1.487-.012,2.261-.03,1.687-.03,3.561-.03,5.248,0,4.011.073,7.472.139,9.427-1.715A5.058,5.058,0,0,0,27,10.509C27,4.715,20.947,0,13.5,0S0,4.715,0,10.509a5.058,5.058,0,0,0,1.449,3.83C3.024,15.836,5.585,16.085,8.615,16.085ZM13.5,2.727c5.891,0,10.689,3.491,10.689,7.782a2.335,2.335,0,0,1-.606,1.885c-1.112,1.055-4.167,1-7.4.939-1.724-.03-3.636-.03-5.36,0-3.236.061-6.291.121-7.4-.939a2.316,2.316,0,0,1-.606-1.879C2.811,6.218,7.6,2.727,13.5,2.727Z" transform="translate(0 13.915)" fill="#bdbdbd"/>
    <path id="Vector-2" data-name="Vector" d="M6.4,13.545c3.6,0,6.4-3.945,6.4-7.339A6.312,6.312,0,0,0,6.4,0,6.312,6.312,0,0,0,0,6.206C0,9.6,2.792,13.545,6.4,13.545Zm0-10.818A3.538,3.538,0,0,1,9.983,6.206c0,2.012-1.737,4.612-3.586,4.612s-3.586-2.6-3.586-4.612A3.538,3.538,0,0,1,6.4,2.727Z" transform="translate(7.103)" fill="#bdbdbd"/>
  </g>
</svg>
