<svg xmlns="http://www.w3.org/2000/svg" width="33" height="30" viewBox="0 0 33 30">
  <path id="ICON_-_EXPLORE" data-name="ICON - EXPLORE" d="M32.207.175a1.553,1.553,0,0,0-1.533.058l-9.183,5.74L12.308.232C12.3.226,12.282.226,12.275.22a1.348,1.348,0,0,0-.313-.135.5.5,0,0,0-.093-.026A1.161,1.161,0,0,0,11.5,0a1.462,1.462,0,0,0-.38.051c-.033.006-.06.019-.093.026a1.348,1.348,0,0,0-.313.135c-.013.006-.027.006-.033.013L.68,6.474A1.457,1.457,0,0,0,0,7.695V28.553a1.453,1.453,0,0,0,.78,1.273,1.553,1.553,0,0,0,1.533-.058L11.5,24.034l9.183,5.733c.013.006.027.006.033.013a1.348,1.348,0,0,0,.313.135.5.5,0,0,0,.093.026,1.429,1.429,0,0,0,.76,0c.033-.006.06-.019.093-.026a1.482,1.482,0,0,0,.313-.135c.013-.006.027-.006.033-.013l10-6.248A1.445,1.445,0,0,0,33,22.305V1.447A1.492,1.492,0,0,0,32.207.175ZM12.995,4.108l7,4.371V25.892l-7-4.371ZM3,8.479l7-4.371V21.521L3,25.892ZM29.988,21.521l-7,4.371V8.479l7-4.371Z" transform="translate(0 0)" fill="#fb5954"/>
</svg>
