<svg xmlns="http://www.w3.org/2000/svg" width="16" height="24" viewBox="0 0 16 24">
  <g id="ICON_-_PASSWORD" data-name="ICON - PASSWORD" transform="translate(-50 -545)">
    <g id="Vector" transform="translate(50 545)" fill="#bdbdbd">
      <path d="M 10.7564697265625 23.875 L 5.243529796600342 23.875 C 2.421159982681274 23.875 0.125 21.6451301574707 0.125 18.90423965454102 L 0.125 11.59757995605469 C 0.125 11.06497955322266 0.5724899768829346 10.63166999816895 1.12253999710083 10.63166999816895 L 3.1181800365448 10.63166999816895 L 3.2431800365448 10.63166999816895 L 3.2431800365448 10.50666999816895 L 3.2431800365448 4.746669769287109 C 3.2431800365448 2.198270082473755 5.378200054168701 0.125 8.002490043640137 0.125 C 10.62679004669189 0.125 12.76181030273438 2.198270082473755 12.76181030273438 4.746669769287109 L 12.76181030273438 10.50666999816895 L 12.76181030273438 10.63166999816895 L 12.88681030273438 10.63166999816895 L 14.87745952606201 10.63166999816895 C 15.42751026153564 10.63166999816895 15.875 11.06497955322266 15.875 11.59757995605469 L 15.875 18.90423965454102 C 15.875 21.6451301574707 13.5788402557373 23.875 10.7564697265625 23.875 Z M 2.120090007781982 12.56348991394043 L 2.120090007781982 12.68848991394043 L 2.120090007781982 18.90423965454102 C 2.120090007781982 20.57991981506348 3.521260023117065 21.94318008422852 5.243529796600342 21.94318008422852 L 10.7564697265625 21.94318008422852 C 12.47873973846436 21.94318008422852 13.87991046905518 20.57991981506348 13.87991046905518 18.90423965454102 L 13.87991046905518 12.68848991394043 L 13.87991046905518 12.56348991394043 L 13.75491046905518 12.56348991394043 L 2.245090007781982 12.56348991394043 L 2.120090007781982 12.56348991394043 Z M 7.997509956359863 2.056819915771484 C 6.473309993743896 2.056819915771484 5.233280181884766 3.263479948043823 5.233280181884766 4.746669769287109 L 5.233280181884766 10.50666999816895 L 5.233280181884766 10.63166999816895 L 5.358280181884766 10.63166999816895 L 10.6367301940918 10.63166999816895 L 10.7617301940918 10.63166999816895 L 10.7617301940918 10.50666999816895 L 10.7617301940918 4.746669769287109 C 10.7617301940918 3.263479948043823 9.521710395812988 2.056819915771484 7.997509956359863 2.056819915771484 Z" stroke="none"/>
      <path d="M 8.002490043640137 0.25 C 5.44711971282959 0.25 3.368180274963379 2.267200469970703 3.368180274963379 4.746669769287109 L 3.368180274963379 10.75666999816895 L 1.122540473937988 10.75666999816895 C 0.6414203643798828 10.75666999816895 0.25 11.1338996887207 0.25 11.59757995605469 L 0.25 18.90423965454102 C 0.25 21.57620048522949 2.490090370178223 23.75 5.2435302734375 23.75 L 10.7564697265625 23.75 C 13.50991058349609 23.75 15.75 21.57620048522949 15.75 18.90423965454102 L 15.75 11.59757995605469 C 15.75 11.1338996887207 15.35857963562012 10.75666999816895 14.87746047973633 10.75666999816895 L 12.63681030273438 10.75666999816895 L 12.63681030273438 4.746669769287109 C 12.63681030273438 2.267200469970703 10.55785942077637 0.25 8.002490043640137 0.25 M 10.8867301940918 10.75666999816895 L 5.108280181884766 10.75666999816895 L 5.108280181884766 4.746669769287109 C 5.108280181884766 3.194559097290039 6.404379844665527 1.931819915771484 7.997509956359863 1.931819915771484 C 9.590629577636719 1.931819915771484 10.8867301940918 3.194559097290039 10.8867301940918 4.746669769287109 L 10.8867301940918 10.75666999816895 M 10.7564697265625 22.06818008422852 L 5.2435302734375 22.06818008422852 C 3.452329635620117 22.06818008422852 1.995089530944824 20.64883995056152 1.995089530944824 18.90423965454102 L 1.995089530944824 12.43848991394043 L 14.00490951538086 12.43848991394043 L 14.00490951538086 18.90423965454102 C 14.00490951538086 20.64883995056152 12.54767036437988 22.06818008422852 10.7564697265625 22.06818008422852 M 8.002490043640137 0 C 10.69659996032715 0 12.88681030273438 2.128480911254883 12.88681030273438 4.746669769287109 L 12.88681030273438 10.50666999816895 L 14.87746047973633 10.50666999816895 C 15.49610042572021 10.50666999816895 16 10.99635982513428 16 11.59757995605469 L 16 18.90423965454102 C 16 21.71636962890625 13.65013980865479 24 10.7564697265625 24 L 5.2435302734375 24 C 2.349860191345215 24 0 21.71636962890625 0 18.90423965454102 L 0 11.59757995605469 C 0 10.99635982513428 0.5038995742797852 10.50666999816895 1.122540473937988 10.50666999816895 L 3.118180274963379 10.50666999816895 L 3.118180274963379 4.746669769287109 C 3.118180274963379 2.128480911254883 5.308389663696289 0 8.002490043640137 0 Z M 10.6367301940918 10.50666999816895 L 10.6367301940918 4.746669769287109 C 10.6367301940918 3.330909729003906 9.454319953918457 2.181819915771484 7.997509956359863 2.181819915771484 C 6.540690422058105 2.181819915771484 5.358280181884766 3.330909729003906 5.358280181884766 4.746669769287109 L 5.358280181884766 10.50666999816895 L 10.6367301940918 10.50666999816895 Z M 10.7564697265625 21.81818008422852 C 12.40785980224609 21.81818008422852 13.75490951538086 20.50909042358398 13.75490951538086 18.90423965454102 L 13.75490951538086 12.68848991394043 L 2.245089530944824 12.68848991394043 L 2.245089530944824 18.90423965454102 C 2.245089530944824 20.50909042358398 3.592140197753906 21.81818008422852 5.2435302734375 21.81818008422852 L 10.7564697265625 21.81818008422852 Z" stroke="none" fill="#fff"/>
    </g>
    <g id="Vector-2" data-name="Vector" transform="translate(56.88 559.691)" fill="#bdbdbd">
      <path d="M 1.122544527053833 4.641060829162598 C 0.5724945068359375 4.641060829162598 0.1250045299530029 4.207750797271729 0.1250045299530029 3.675150632858276 L 0.1250045299530029 1.090910673141479 C 0.1250045299530029 0.5583106279373169 0.5724945068359375 0.1250006556510925 1.122544527053833 0.1250006556510925 C 1.672594547271729 0.1250006556510925 2.120084524154663 0.5583106279373169 2.120084524154663 1.090910673141479 L 2.120084524154663 3.675150632858276 C 2.120084524154663 4.207750797271729 1.672594547271729 4.641060829162598 1.122544527053833 4.641060829162598 Z" stroke="none"/>
      <path d="M 1.122544527053833 0.2500004768371582 C 0.6414245367050171 0.2500004768371582 0.2500045299530029 0.6272306442260742 0.2500045299530029 1.090910673141479 L 0.2500045299530029 3.675150632858276 C 0.2500045299530029 4.138830661773682 0.6414245367050171 4.516060829162598 1.122544527053833 4.516060829162598 C 1.603664517402649 4.516060829162598 1.995084524154663 4.138830661773682 1.995084524154663 3.675150632858276 L 1.995084524154663 1.090910673141479 C 1.995084524154663 0.6272306442260742 1.603664517402649 0.2500004768371582 1.122544527053833 0.2500004768371582 M 1.122544527053833 4.76837158203125e-07 C 1.741194486618042 4.76837158203125e-07 2.245084524154663 0.4897007942199707 2.245084524154663 1.090910673141479 L 2.245084524154663 3.675150632858276 C 2.245084524154663 4.276360511779785 1.741194486618042 4.766060829162598 1.122544527053833 4.766060829162598 C 0.503894567489624 4.766060829162598 4.529953002929688e-06 4.276360511779785 4.529953002929688e-06 3.675150632858276 L 4.529953002929688e-06 1.090910673141479 C 4.529953002929688e-06 0.4897007942199707 0.503894567489624 4.76837158203125e-07 1.122544527053833 4.76837158203125e-07 Z" stroke="none" fill="#fff"/>
    </g>
  </g>
</svg>
