<svg xmlns="http://www.w3.org/2000/svg" width="375" height="265" viewBox="0 0 375 265">
  <g id="Groupe_5" data-name="Groupe 5" transform="translate(0 -1)">
    <rect id="Rectangle_6" data-name="Rectangle 6" width="375" height="265" transform="translate(0 1)" fill="#f4f5f9"/>
    <g id="ILLUSTRATION" transform="translate(0 -39)">
      <g id="Group">
        <g id="Group-2" data-name="Group">
          <path id="Vector" d="M16.74-38.21v.07L14.9-11.26a.127.127,0,0,1-.01.06.127.127,0,0,1-.01.06c0,.02-.01.04-.01.07s-.01.04-.01.07-.01.04-.01.07a.254.254,0,0,1-.02.07.254.254,0,0,1-.02.07.637.637,0,0,0-.02.07c-.01.02-.01.04-.02.06s-.01.04-.02.06,0,.01-.01.02-.01.02-.01.03-.01.03-.02.05-.01.03-.02.05a.076.076,0,0,1-.02.04c0,.01-.01.03-.01.04s-.01.03-.02.04-.01.02-.02.04-.01.02-.01.03-.01.02-.01.03v.01c0,.01-.01.02-.01.03s-.01.02-.02.03-.01.02-.02.04-.01.02-.02.04-.01.02-.02.04-.01.03-.02.04-.02.03-.03.05-.02.03-.03.05a.01.01,0,0,1-.01.01c-.01.01-.01.02-.02.03a1.739,1.739,0,0,1-.11.18c-.01.02-.03.04-.04.06a.076.076,0,0,0-.02.04.138.138,0,0,0-.03.04c-.01.01-.02.03-.03.04s-.02.02-.02.03-.02.02-.02.03-.02.02-.02.03-.02.02-.02.03l-.03.03-.03.03L14-9.29l-.01.01c-.01.01-.02.02-.02.03s-.02.03-.03.04-.02.03-.03.04-.03.03-.04.05-.03.03-.04.05l-.05.05-.01.01-.04.04-.05.05c-.02.02-.04.03-.05.05s-.03.03-.05.04a.218.218,0,0,0-.05.04L1.89-.24c-.02.01-.03.02-.05.03s-.03.02-.05.03-.03.02-.05.03-.03.02-.05.03-.03.02-.05.03-.03.02-.05.02-.03.01-.05.02-.03.01-.05.02-.03.01-.05.01-.02,0-.02.01H1.4c-.02,0-.04.01-.06.01H1.21a.235.235,0,0,1-.08-.02c-.03-.01-.05-.02-.08-.03C.7-.24.35-.43,0-.63a.48.48,0,0,0,.17.05H.18A.623.623,0,0,0,.37-.59H.38A1.187,1.187,0,0,0,.6-.67,1.576,1.576,0,0,0,.84-.82L12.5-9.39a1.638,1.638,0,0,0,.25-.21,3.716,3.716,0,0,0,.46-.56c.06-.09.12-.19.18-.29a.076.076,0,0,0,.02-.04,3.879,3.879,0,0,0,.29-.67,2.136,2.136,0,0,0,.09-.34c.02-.11.04-.22.05-.33l1.84-26.88a1.4,1.4,0,0,0,0-.29v-.01a1.138,1.138,0,0,0-.05-.23.638.638,0,0,0-.08-.14.219.219,0,0,1-.03-.05.53.53,0,0,0-.12-.1l1.06.57a.318.318,0,0,1,.12.11.219.219,0,0,1,.03.05c.01.02.03.04.04.06a.3.3,0,0,0,.04.08.185.185,0,0,1,.02.07.637.637,0,0,1,.02.07c0,.02.01.04.01.07v.24Z" transform="translate(136.373 88.799) rotate(180)" fill="#fb5954"/>
          <g id="Group-3" data-name="Group">
            <path id="Vector-2" data-name="Vector" d="M12.8-8.818a3.785,3.785,0,0,0,1.34-2.45l1.84-26.88c.06-.85-.45-1.13-1.13-.63l-11.66,8.57a3.761,3.761,0,0,0-1.34,2.45L0-.878c-.06.85.44,1.13,1.13.63Z" transform="translate(136.678 89.371) rotate(180)" fill="#dc4844"/>
          </g>
        </g>
      </g>
      <path id="Vector-3" data-name="Vector" d="M1.7-3.118c-.13-2.67-1.37-6.01-1.5-11.47s-1.09-7.91,2.79-9.02c1.78-.51,9.5.3,7.72,7.54s.25,12.06-1.91,15.11S1.7-3.118,1.7-3.118Z" transform="translate(78.342 259.491) rotate(180)" fill="#7f3d12"/>
      <path id="Vector-4" data-name="Vector" d="M16.906,0C14.116-1.02,3.026-5.93,1.5-7.28c-2.12-1.86-2.75-2.71,3.34-2.71s13.71,1.65,14.6.89,5.33-1.06,5.71.59-.51,5.79-1.08,7.15S16.906,0,16.906,0Z" transform="translate(122.269 245.859) rotate(180)" fill="#7f3d12"/>
      <path id="Vector-5" data-name="Vector" d="M10.087-80.79s8.05,22.61,7.03,29.72,4.87,18.9,6.9,32.51S-.493,7.15.007-5.02s2.27-37.83,2.61-44.61-.08-30.39-.08-30.39S9.3-83.5,10.087-80.79Z" transform="translate(107.89 165.839) rotate(180)" fill="#f3534e"/>
      <path id="Vector-6" data-name="Vector" d="M0-5.205l13.38-85.27s.17-1.33,5.42-1.32c1.36,0,3.61-.04,3.84,1.77.82,6.64,3.45,24.57,1.97,37-2.73,22.95,4.17,34.95-.23,51.45C22.94,3.825,14.82-6.5,0-5.205Z" transform="translate(90.773 172.344) rotate(180)" fill="#fb5954"/>
      <path id="Vector-7" data-name="Vector" d="M13-8.464c-.78-2.49-3.52-2.27-5.91-5.62-.61-.86-1.61.81.44,3.29.88,1.06-.28,2.46-2.54.02s-2.93-5.06-4.63-.74c-1.08,2.74.3,5.6,3.35,7.38,1.52.89,4.24.63,6.41,2.18,5.69,4.07,6.43.9,6.79-1.55C17.124-4.974,13.264-7.624,13-8.464Z" transform="translate(135.088 147.305) rotate(180)" fill="#fd91a4"/>
      <path id="Vector-8" data-name="Vector" d="M16.48-3.652c-3.4-6.6-1.19-23.79-1.12-28.15S6.37-44.852,0-48.622l4.88-7.32s18.08,8,20.6,11.72c2.8,4.12,4.73,18.96,4.07,23.21S23.24,9.5,16.48-3.652Z" transform="translate(124.673 98.597) rotate(180)" fill="#ffe8af"/>
      <path id="Vector-9" data-name="Vector" d="M.071-72.05c-1.24-7.86,14.04-12.52,25.67-10.54s22.6,1.57,19.01,13.96c-7.29,25.13,5.65,40.12,2.52,48.78a20.322,20.322,0,0,1-5.34,8.18C31.551-2.76,13.981,1.54,6.2-.5c-6.43-1.68-7.42-13.34-4.9-31.7C3.331-46.83,2.881-54.27.071-72.05Z" transform="translate(109.814 97.469) rotate(180)" fill="#fbd26e"/>
      <path id="Vector-10" data-name="Vector" d="M6.208-.067c-.86.73-7.45-4.73-6-6.57s5.05.69,6.19,2.09A3.353,3.353,0,0,1,6.208-.067Z" transform="translate(119.401 120.192) rotate(180)" fill="#fb5954"/>
      <path id="Vector-11" data-name="Vector" d="M12.857-6.43c-.54,2.56-3.29,2.6-5.34,6.17-.52.91-1.68-.66.12-3.32.77-1.14-.52-2.42-2.53.22S2.677,1.96.567-2.17C-.773-4.79.327-7.77,3.2-9.84c1.43-1.03,4.16-1.04,6.16-2.79,5.27-4.6,6.31-1.52,6.9.89C16.637-10.29,13.037-7.28,12.857-6.43Z" transform="translate(128.17 112.869) rotate(180)" fill="#fd91a4"/>
      <path id="Vector-12" data-name="Vector" d="M55.85-4.065c-4.54,7.36-12.43,3.62-17.2-2.48-4.87-6.23-10.8-14.66-16-11.83S10.19-10.675,6-7.815c.86-2.25-1.75-6.26-6-6.57l20.12-16.29s4.63-5.14,14.71,1.9S62.13-14.265,55.85-4.065Z" transform="translate(119.193 112.444) rotate(180)" fill="#ffe8af"/>
      <path id="Vector-13" data-name="Vector" d="M4.25-3.662c-2.37-3.16-4.23-7.17-2.51-9.71C1.87-16.042,0-41.5,0-41.5s4.15,26.25,5.42,26.16,14.39,3.38,12.87,10.58C17.02,1.248,8.14,1.518,4.25-3.662Z" transform="translate(98.953 99.117) rotate(180)" fill="#e5eaee"/>
      <path id="Vector-14" data-name="Vector" d="M12.89-1.209c-.03-3.09.08-6.35,0-8.55s-1.18-4.23-5.76-6.77-8.47-.08-6.69,2.2a10.646,10.646,0,0,1,2.54,7.11C2.99-4.419,12.94,2.861,12.89-1.209Z" transform="translate(95.193 92.21) rotate(180)" fill="#fd91a4"/>
      <path id="Vector-15" data-name="Vector" d="M13.46-18.544C5.79-21.694,0-19.324,0-14.5v13.14s13.07,3.07,19.3,0c4.78-2.36,4.15-11.11-1.14-10.83C18.16-12.194,17.52-16.874,13.46-18.544Z" transform="translate(99.913 81.985) rotate(180)" fill="#ffa6b9"/>
      <path id="Vector-16" data-name="Vector" d="M17.085-24.219c.13,2.62,1.08,7.19-3.46,7.06S.235-17.1.115-13.029-.515-6.3,2.4-4.779s8.28,8.17,19.33,2.58c9.44-4.77,9.13-29.67-1.76-25.9a14.142,14.142,0,0,1,.55,1.92s4.98,3.88,1.78,6.86c-1.79,1.66-3.68-1.68-3.68-4.91h-1.54Z" transform="translate(102.268 68) rotate(180)" fill="#7f3d12"/>
    </g>
  </g>
</svg>
