<svg xmlns="http://www.w3.org/2000/svg" width="21.6" height="24" viewBox="0 0 21.6 24">
  <g id="ICON_-_USER" data-name="ICON - USER" transform="translate(-46 -416)">
    <g id="Group_33" data-name="Group 33" transform="translate(46 416)">
      <g id="Vector" transform="translate(0 11.132)" fill="#bdbdbd">
        <path d="M 6.891810417175293 12.74287509918213 C 4.362450122833252 12.74287509918213 2.4343101978302 12.51126480102539 1.24560022354126 11.380934715271 C 0.5020301938056946 10.67361450195312 0.1250001937150955 9.673125267028809 0.1250001937150955 8.407275199890137 C 0.1250001937150955 3.840414762496948 4.913790225982666 0.1250048279762268 10.80000019073486 0.1250048279762268 C 16.68621063232422 0.1250048279762268 21.47500038146973 3.840414762496948 21.47500038146973 8.407275199890137 C 21.47500038146973 9.673125267028809 21.09797096252441 10.67361450195312 20.35439109802246 11.38094520568848 C 19.16448974609375 12.50949478149414 17.22966957092285 12.74076461791992 14.69067001342773 12.74076461791992 C 14.12057018280029 12.74076461791992 13.53787994384766 12.73020458221436 12.92098045349121 12.71901512145996 L 12.90130043029785 12.71865463256836 C 12.22899055480957 12.70657444000244 11.52202033996582 12.70045471191406 10.80000019073486 12.70045471191406 C 10.07798004150391 12.70045471191406 9.371009826660156 12.70657444000244 8.69871997833252 12.71865463256836 C 7.994670391082764 12.73518466949463 7.420730113983154 12.74287509918213 6.891810417175293 12.74287509918213 Z M 10.80000019073486 2.056814908981323 C 6.01602029800415 2.056814908981323 2.123960256576538 4.907794952392578 2.123960256576538 8.412124633789062 C 2.123960256576538 9.498074531555176 2.51494026184082 9.877135276794434 2.643420219421387 10.00170516967773 L 2.643790245056152 10.00205516815186 L 2.647460222244263 10.00560474395752 C 3.392530202865601 10.71625518798828 5.127560138702393 10.8142147064209 6.89153003692627 10.8142147064209 C 7.453610420227051 10.8142147064209 8.027130126953125 10.80346488952637 8.634320259094238 10.79209518432617 L 8.658329963684082 10.79164505004883 C 9.343910217285156 10.77959442138672 10.06453037261963 10.77348518371582 10.80000019073486 10.77348518371582 C 11.5354700088501 10.77348518371582 12.25609016418457 10.77959442138672 12.94181060791016 10.79164505004883 C 13.51848030090332 10.80244445800781 14.1149206161499 10.81361484527588 14.68262004852295 10.81361484527588 C 16.45780944824219 10.8136043548584 18.20372009277344 10.715744972229 18.9522705078125 10.00585460662842 C 19.08382987976074 9.878254890441895 19.47603988647461 9.497824668884277 19.47603988647461 8.407275199890137 C 19.47603988647461 4.905614852905273 15.58398056030273 2.056814908981323 10.80000019073486 2.056814908981323 Z" stroke="none"/>
        <path d="M 6.891810417175293 12.61787509918213 C 7.419730186462402 12.61787509918213 7.992740154266357 12.61019515991211 8.696479797363281 12.593674659729 C 9.369510650634766 12.58158493041992 10.07723045349121 12.57545471191406 10.80000019073486 12.57545471191406 C 11.52276992797852 12.57545471191406 12.23048973083496 12.58158493041992 12.90356063842773 12.593674659729 L 12.92416000366211 12.59404468536377 C 13.54016017913818 12.60521507263184 14.12199020385742 12.61576461791992 14.69067001342773 12.61576461791992 C 17.19975090026855 12.61576461791992 19.10849952697754 12.39033508300781 20.26823043823242 11.29037475585938 C 20.98604011535645 10.60756492614746 21.35000038146973 9.637544631958008 21.35000038146973 8.407275199890137 C 21.35000038146973 3.909344911575317 16.61729049682617 0.2500048279762268 10.80000019073486 0.2500048279762268 C 4.982710361480713 0.2500048279762268 0.2500001788139343 3.909344911575317 0.2500001788139343 8.407275199890137 C 0.2500001788139343 9.637544631958008 0.6139602065086365 10.60756492614746 1.331730246543884 11.29034519195557 C 2.490410089492798 12.39211463928223 4.392430305480957 12.61787509918213 6.891810417175293 12.61787509918213 M 10.80000019073486 1.931814789772034 C 15.65291023254395 1.931814789772034 19.60103988647461 4.836694717407227 19.60103988647461 8.407275199890137 C 19.60103988647461 9.550724983215332 19.18025970458984 9.958874702453613 19.0419807434082 10.09299468994141 L 19.03829002380371 10.09655475616455 C 18.25795936584473 10.83658504486084 16.48370933532715 10.9386043548584 14.68262004852295 10.93861484527588 C 14.11402034759521 10.93861484527588 13.5168399810791 10.92743492126465 12.93962001800537 10.91662502288818 C 12.25462055206299 10.90458488464355 11.53474998474121 10.89848518371582 10.80000019073486 10.89848518371582 C 10.06525039672852 10.89848518371582 9.345379829406738 10.90458488464355 8.660670280456543 10.91662502288818 L 8.63523006439209 10.91709518432617 C 8.027939796447754 10.92847442626953 7.454329967498779 10.9392147064209 6.89153003692627 10.9392147064209 C 5.101580142974854 10.9392147064209 3.33810019493103 10.83707523345947 2.561180114746094 10.09606456756592 L 2.556410074234009 10.09144496917725 C 2.418540239334106 9.957775115966797 1.998960137367249 9.550984382629395 1.998960137367249 8.412124633789062 C 1.998960137367249 4.838864803314209 5.947090148925781 1.931814789772034 10.80000019073486 1.931814789772034 M 6.891810417175293 12.86787509918213 C 4.467930316925049 12.86787509918213 2.418880224227905 12.6690845489502 1.159460186958313 11.47151470184326 C 0.3898201882839203 10.73939514160156 1.907348661234209e-07 9.7066650390625 1.907348661234209e-07 8.407275199890137 C 1.907348661234209e-07 3.772124767303467 4.84276008605957 4.825286850973498e-06 10.80000019073486 4.825286850973498e-06 C 16.75724029541016 4.825286850973498e-06 21.60000038146973 3.772124767303467 21.60000038146973 8.407275199890137 C 21.60000038146973 9.7066650390625 21.21018028259277 10.73939514160156 20.4405403137207 11.47151470184326 C 18.87626075744629 12.95515441894531 16.1075439453125 12.90181636810303 12.89902973175049 12.84363460540771 C 11.54965114593506 12.8193941116333 10.05034923553467 12.8193941116333 8.700970649719238 12.84363460540771 C 8.081259727478027 12.85818481445312 7.476540088653564 12.86787509918213 6.891810417175293 12.86787509918213 Z M 10.80000019073486 2.181814908981323 C 6.082180023193359 2.181814908981323 2.248960256576538 4.974545001983643 2.248960256576538 8.412124633789062 C 2.248960256576538 9.454545021057129 2.613790273666382 9.798785209655762 2.73373007774353 9.915154457092285 C 3.623320341110229 10.76363468170166 6.06718635559082 10.7151517868042 8.655990600585938 10.66666507720947 C 10.03534889221191 10.64242458343506 11.56465148925781 10.64242458343506 12.94400978088379 10.66666507720947 C 15.53281688690186 10.71515846252441 17.97668075561523 10.75878429412842 18.86626052856445 9.915154457092285 C 18.98620986938477 9.798785209655762 19.35103988647461 9.449694633483887 19.35103988647461 8.407275199890137 C 19.35103988647461 4.974545001983643 15.51282024383545 2.181814908981323 10.80000019073486 2.181814908981323 Z" stroke="none" fill="#fff"/>
      </g>
      <g id="Vector-2" data-name="Vector" transform="translate(5.682)" fill="#bdbdbd">
        <path d="M 5.117631435394287 10.7113618850708 C 3.81550145149231 10.7113618850708 2.557141542434692 10.04671192169189 1.574371457099915 8.839861869812012 C 0.6668214201927185 7.725371837615967 0.1250014305114746 6.276772022247314 0.1250014305114746 4.964851856231689 C 0.1250014305114746 2.296151876449585 2.364681482315063 0.1250018924474716 5.117631435394287 0.1250018924474716 C 7.87058162689209 0.1250018924474716 10.11026096343994 2.296151876449585 10.11026096343994 4.964851856231689 C 10.11026096343994 7.622282028198242 7.929371356964111 10.7113618850708 5.117631435394287 10.7113618850708 Z M 5.117631435394287 2.056821823120117 C 3.466911554336548 2.056821823120117 2.123961448669434 3.361361980438232 2.123961448669434 4.964851856231689 C 2.123961448669434 5.777462005615234 2.46191143989563 6.720531940460205 3.027981519699097 7.487551689147949 C 3.633931398391724 8.308631896972656 4.395581245422363 8.779541969299316 5.117631435394287 8.779541969299316 C 5.839681625366211 8.779541969299316 6.601331233978271 8.308631896972656 7.207291603088379 7.487551689147949 C 7.773351669311523 6.720531940460205 8.111301422119141 5.777462005615234 8.111301422119141 4.964851856231689 C 8.111301422119141 3.361361980438232 6.768351554870605 2.056821823120117 5.117631435394287 2.056821823120117 Z" stroke="none"/>
        <path d="M 5.117631435394287 10.5863618850708 C 6.381461620330811 10.5863618850708 7.605391502380371 9.938072204589844 8.563971519470215 8.760931968688965 C 9.453941345214844 7.668031692504883 9.985260963439941 6.248941898345947 9.985260963439941 4.964851856231689 C 9.985260963439941 2.365072011947632 7.801651477813721 0.2500019073486328 5.117631435394287 0.2500019073486328 C 2.433611392974854 0.2500019073486328 0.2500014305114746 2.365072011947632 0.2500014305114746 4.964851856231689 C 0.2500014305114746 6.248931884765625 0.7813314199447632 7.668031692504883 1.671301484107971 8.760931968688965 C 2.629881381988525 9.938072204589844 3.853811502456665 10.5863618850708 5.117631435394287 10.5863618850708 M 5.117631435394287 1.931821942329407 C 6.837271213531494 1.931821942329407 8.236301422119141 3.292431831359863 8.236301422119141 4.964851856231689 C 8.236301422119141 6.701441764831543 6.767941474914551 8.904541969299316 5.117631435394287 8.904541969299316 C 3.467321395874023 8.904541969299316 1.998961448669434 6.701441764831543 1.998961448669434 4.964851856231689 C 1.998961448669434 3.292431831359863 3.397991418838501 1.931821942329407 5.117631435394287 1.931821942329407 M 5.117631435394287 10.8363618850708 C 2.233971357345581 10.8363618850708 1.435394324289518e-06 7.680001735687256 1.435394324289518e-06 4.964851856231689 C 1.435394324289518e-06 2.225451946258545 2.298941373825073 1.896209710139374e-06 5.117631435394287 1.896209710139374e-06 C 7.936331272125244 1.896209710139374e-06 10.23526096343994 2.225451946258545 10.23526096343994 4.964851856231689 C 10.23526096343994 7.680001735687256 8.001301765441895 10.8363618850708 5.117631435394287 10.8363618850708 Z M 5.117631435394287 2.181821823120117 C 3.538361549377441 2.181821823120117 2.248961448669434 3.427881956100464 2.248961448669434 4.964851856231689 C 2.248961448669434 6.574542045593262 3.638321399688721 8.654541969299316 5.117631435394287 8.654541969299316 C 6.596951484680176 8.654541969299316 7.986301422119141 6.574542045593262 7.986301422119141 4.964851856231689 C 7.986301422119141 3.427881956100464 6.696901321411133 2.181821823120117 5.117631435394287 2.181821823120117 Z" stroke="none" fill="#fff"/>
      </g>
    </g>
  </g>
</svg>
